<svg width="116" height="134" viewBox="0 0 116 134" fill="none" xmlns="http://www.w3.org/2000/svg">
<g id="undraw_time_management_re_tk5w 3" clip-path="url(#clip0_105_272)">
<path id="Vector" d="M107.777 65.0952C107.777 91.9956 86.1254 113.745 59.4869 113.745C32.8484 113.745 11.1963 91.9956 11.1963 65.0952C11.1963 38.1949 32.8484 16.4453 59.4869 16.4453C86.1254 16.4453 107.777 38.1949 107.777 65.0952Z" stroke="#3B96D1" stroke-width="10"/>
<path id="Vector_2" opacity="0.2" d="M59.5958 23.0415C58.9608 23.0415 58.3297 23.0582 57.7016 23.0864C68.2887 24.023 78.1264 28.9761 85.2215 36.9424C92.3166 44.9086 96.1386 55.2921 95.913 65.9894C95.6875 76.6866 91.4314 86.8975 84.0069 94.5535C76.5824 102.209 66.5448 106.738 55.9277 107.221C57.1368 107.327 58.3596 107.384 59.5958 107.384C70.7054 107.384 81.36 102.941 89.2157 95.0325C97.0714 87.1238 101.485 76.3974 101.485 65.2128C101.485 54.0283 97.0714 43.3019 89.2157 35.3932C81.36 27.4845 70.7054 23.0415 59.5958 23.0415Z" fill="#125486"/>
<path id="Vector_3" d="M59.6108 19.9292C59.2494 19.9298 58.9031 20.0746 58.6475 20.3319C58.392 20.5891 58.2482 20.9378 58.2476 21.3016V27.2905C58.2476 27.6545 58.3912 28.0035 58.6468 28.2609C58.9025 28.5183 59.2492 28.6629 59.6108 28.6629C59.9724 28.6629 60.3191 28.5183 60.5748 28.2609C60.8304 28.0035 60.9741 27.6545 60.9741 27.2905V21.3016C60.9734 20.9378 60.8296 20.5891 60.5741 20.3319C60.3185 20.0746 59.9722 19.9298 59.6108 19.9292Z" fill="#125486"/>
<path id="Vector_4" d="M86.8333 28.0368C86.4491 27.7474 86.0574 27.4654 85.6633 27.1909C85.4268 27.1754 85.1904 27.2222 84.9775 27.3268C84.7645 27.4314 84.5822 27.5901 84.4488 27.7873L81.1002 32.7356C80.8967 33.0363 80.8203 33.4062 80.8877 33.7637C80.9551 34.1212 81.1608 34.4372 81.4596 34.642C81.7584 34.8468 82.1257 34.9238 82.4808 34.8559C82.836 34.7881 83.1498 34.581 83.3532 34.2802L86.7019 29.3319C86.8293 29.1442 86.9081 28.9273 86.931 28.7012C86.9539 28.475 86.9203 28.2466 86.8333 28.0368Z" fill="#125486"/>
<path id="Vector_5" d="M102.047 50.5994C101.98 50.4325 101.881 50.2807 101.755 50.1525C101.629 50.0243 101.48 49.9224 101.315 49.8524C101.15 49.7824 100.973 49.7458 100.794 49.7447C100.615 49.7435 100.438 49.7779 100.272 49.8458L94.76 52.0991C94.4254 52.2363 94.1586 52.5017 94.0182 52.8368C93.8778 53.172 93.8754 53.5495 94.0114 53.8865C94.1474 54.2235 94.4107 54.4924 94.7435 54.634C95.0763 54.7756 95.4513 54.7784 95.7862 54.6418L101.299 52.3885C101.633 52.2506 101.9 51.9849 102.04 51.6496C102.18 51.3143 102.183 50.9366 102.047 50.5994Z" fill="#125486"/>
<path id="Vector_6" d="M37.873 32.7356L34.5244 27.7873C34.3909 27.5901 34.2087 27.4314 33.9957 27.3268C33.7827 27.2222 33.5463 27.1754 33.3098 27.1909C32.9157 27.4654 32.5241 27.7474 32.1399 28.0368C32.0528 28.2466 32.0192 28.475 32.0422 28.7012C32.0651 28.9273 32.1439 29.1442 32.2713 29.3319L35.6199 34.2802C35.8234 34.581 36.1372 34.7881 36.4923 34.8559C36.8474 34.9238 37.2148 34.8468 37.5136 34.642C37.8124 34.4372 38.0181 34.1212 38.0855 33.7637C38.1529 33.4062 38.0764 33.0363 37.873 32.7356Z" fill="#125486"/>
<path id="Vector_7" d="M24.2131 52.0992L18.7007 49.8459C18.3657 49.709 17.9905 49.7116 17.6575 49.8532C17.3245 49.9948 17.061 50.2637 16.925 50.6009C16.7889 50.938 16.7914 51.3158 16.932 51.651C17.0726 51.9863 17.3396 52.2516 17.6745 52.3887L23.187 54.642C23.5218 54.7786 23.8969 54.7758 24.2297 54.6341C24.5624 54.4925 24.8258 54.2237 24.9618 53.8867C25.0978 53.5497 25.0953 53.1721 24.9549 52.837C24.8146 52.5018 24.5477 52.2365 24.2131 52.0992Z" fill="#125486"/>
<path id="Vector_8" d="M59.6108 101.527C59.2494 101.528 58.9031 101.673 58.6475 101.93C58.392 102.187 58.2482 102.536 58.2476 102.9V108.889C58.2476 109.253 58.3912 109.602 58.6468 109.859C58.9025 110.116 59.2492 110.261 59.6108 110.261C59.9724 110.261 60.3191 110.116 60.5748 109.859C60.8304 109.602 60.9741 109.253 60.9741 108.889V102.9C60.9734 102.536 60.8296 102.187 60.5741 101.93C60.3185 101.673 59.9722 101.528 59.6108 101.527Z" fill="#125486"/>
<path id="Vector_9" d="M86.7019 100.858L83.3532 95.9099C83.2525 95.7609 83.1236 95.6334 82.9739 95.5346C82.8242 95.4359 82.6567 95.3677 82.4808 95.3341C82.305 95.3005 82.1243 95.3021 81.9491 95.3388C81.7738 95.3755 81.6075 95.4466 81.4596 95.548C81.3116 95.6495 81.185 95.7792 81.0869 95.9299C80.9887 96.0806 80.921 96.2493 80.8877 96.4263C80.8543 96.6034 80.8559 96.7853 80.8923 96.9617C80.9288 97.1381 80.9994 97.3056 81.1002 97.4545L84.4488 102.403C84.5822 102.6 84.7645 102.759 84.9774 102.863C85.1904 102.968 85.4269 103.015 85.6633 102.999C86.0574 102.725 86.4491 102.443 86.8332 102.153C86.9203 101.943 86.9539 101.715 86.931 101.489C86.9081 101.263 86.8293 101.046 86.7019 100.858Z" fill="#125486"/>
<path id="Vector_10" d="M101.299 77.8014L95.7861 75.5481C95.4512 75.4112 95.076 75.4138 94.743 75.5554C94.41 75.6969 94.1465 75.9659 94.0104 76.303C93.8743 76.6402 93.8769 77.0179 94.0174 77.3532C94.158 77.6885 94.4251 77.9538 94.76 78.0908L100.272 80.3441C100.607 80.4807 100.982 80.4779 101.315 80.3363C101.648 80.1947 101.911 79.9258 102.047 79.5888C102.183 79.2518 102.181 78.8743 102.04 78.5391C101.9 78.2039 101.633 77.9386 101.299 77.8014Z" fill="#125486"/>
<path id="Vector_11" d="M37.5136 95.5484C37.2148 95.3437 36.8474 95.2668 36.4923 95.3346C36.1372 95.4025 35.8234 95.6095 35.6199 95.9102L32.2713 100.858C32.1439 101.046 32.0651 101.263 32.0422 101.489C32.0192 101.715 32.0528 101.944 32.1399 102.154C32.5241 102.443 32.9157 102.725 33.3098 103C33.5463 103.015 33.7827 102.968 33.9957 102.864C34.2087 102.759 34.3909 102.6 34.5244 102.403L37.873 97.4549C37.9737 97.3059 38.0444 97.1385 38.0808 96.962C38.1173 96.7856 38.1189 96.6037 38.0855 96.4267C38.0521 96.2497 37.9845 96.081 37.8863 95.9303C37.7882 95.7796 37.6615 95.6498 37.5136 95.5484Z" fill="#125486"/>
<path id="Vector_12" d="M24.9617 76.3015C24.8944 76.1347 24.7951 75.9828 24.6695 75.8547C24.5438 75.7265 24.3943 75.6245 24.2295 75.5545C24.0647 75.4845 23.8878 75.4479 23.7089 75.4468C23.5301 75.4457 23.3527 75.48 23.187 75.5479L17.6746 77.8012C17.34 77.9385 17.0731 78.2038 16.9328 78.539C16.7924 78.8741 16.7899 79.2517 16.9259 79.5887C17.0619 79.9257 17.3253 80.1945 17.658 80.3361C17.9908 80.4778 18.3659 80.4806 18.7007 80.344L24.2132 78.0907C24.5476 77.9528 24.8142 77.6871 24.9545 77.3517C25.0948 77.0164 25.0974 76.6388 24.9617 76.3015Z" fill="#125486"/>
<path id="Vector_13" d="M61.3793 64.4138C61.5052 65.164 61.3304 65.9338 60.8932 66.5544C60.456 67.175 59.7921 67.5956 59.0472 67.724L34.8562 71.8666C34.4872 71.9298 34.1095 71.9192 33.7445 71.8354C33.3795 71.7517 33.0346 71.5963 32.7292 71.3783C32.4239 71.1603 32.1642 70.8839 31.965 70.5648C31.7658 70.2458 31.631 69.8904 31.5682 69.5188C31.5054 69.1473 31.516 68.767 31.5992 68.3996C31.6824 68.0322 31.8367 67.6849 32.0533 67.3775C32.2698 67.0701 32.5444 66.8087 32.8613 66.6081C33.1782 66.4076 33.5313 66.2718 33.9003 66.2086L58.0913 62.066C58.8364 61.9393 59.6011 62.1153 60.2175 62.5555C60.8339 62.9956 61.2518 63.6639 61.3793 64.4138Z" fill="#3B96D1"/>
<path id="Vector_14" d="M86.8398 91.3964C86.4923 91.7483 86.0203 91.947 85.5274 91.9489C85.0346 91.9509 84.5611 91.7559 84.2108 91.4068L58.1696 65.3956C57.8201 65.0459 57.6228 64.5709 57.6211 64.0748C57.6194 63.5787 57.8134 63.1023 58.1604 62.7502C58.5075 62.398 58.9792 62.199 59.4719 62.1968C59.9646 62.1946 60.438 62.3895 60.7882 62.7385L86.8294 88.7497C87.1789 89.0996 87.3763 89.5747 87.3782 90.0709C87.3802 90.5671 87.1865 91.0438 86.8398 91.3964Z" fill="#3B96D1"/>
<path id="Vector_15" d="M59.4869 68.339C61.2665 68.339 62.7091 66.8866 62.7091 65.095C62.7091 63.3034 61.2665 61.8511 59.4869 61.8511C57.7073 61.8511 56.2646 63.3034 56.2646 65.095C56.2646 66.8866 57.7073 68.339 59.4869 68.339Z" fill="#CCCCCC"/>
<path id="Vector_16" d="M37.292 8.84445C32.3459 16.673 24.7993 21.8683 15.4925 25.2814C15.3086 25.4201 15.0994 25.5209 14.8767 25.5782C14.6541 25.6354 14.4225 25.648 14.195 25.6151C13.9676 25.5822 13.7488 25.5046 13.5512 25.3866C13.3536 25.2686 13.181 25.1126 13.0432 24.9275C7.98782 18.132 9.12933 8.41998 15.8014 3.22747C17.4145 1.97428 19.2587 1.05616 21.2271 0.526402C23.1955 -0.00335386 25.2489 -0.134191 27.2679 0.141489C29.287 0.417169 31.2315 1.09387 32.9886 2.13232C34.7458 3.17076 36.2805 4.55026 37.5038 6.19072L37.6436 6.37867C37.7813 6.56382 37.8815 6.77446 37.9384 6.99858C37.9952 7.22269 38.0077 7.45589 37.9751 7.68486C37.9424 7.91383 37.8653 8.13409 37.7481 8.33305C37.6309 8.53201 37.4759 8.70579 37.292 8.84445Z" fill="#125486"/>
<path id="Vector_17" d="M81.4695 6.19071C82.6928 4.55025 84.2275 3.17076 85.9846 2.13231C87.7418 1.09387 89.6863 0.41717 91.7054 0.14149C93.7244 -0.13419 95.7777 -0.0033566 97.7461 0.526399C99.7145 1.05616 101.559 1.97428 103.172 3.22747C109.844 8.41997 110.985 18.132 105.93 24.9275C105.792 25.1126 105.62 25.2686 105.422 25.3866C105.224 25.5046 105.006 25.5822 104.778 25.6151C104.551 25.648 104.319 25.6354 104.097 25.5782C103.874 25.5209 103.665 25.4201 103.481 25.2814C94.8409 21.9513 87.7558 16.1885 81.6813 8.84445C81.3098 8.5644 81.0642 8.14728 80.9982 7.68485C80.9323 7.22243 81.0515 6.75258 81.3297 6.37866L81.4695 6.19071Z" fill="#125486"/>
<path id="Vector_18" d="M79.3016 111.575C78.9866 111.753 78.7546 112.05 78.6564 112.4C78.5582 112.75 78.6018 113.125 78.7777 113.443L86.6454 127.597C86.822 127.915 87.1166 128.149 87.4645 128.248C87.8124 128.347 88.1851 128.302 88.5006 128.125C88.816 127.947 89.0485 127.65 89.1468 127.3C89.245 126.95 89.2011 126.575 89.0247 126.257L81.157 112.103C80.98 111.786 80.6853 111.552 80.3376 111.453C79.9898 111.354 79.6173 111.398 79.3016 111.575Z" fill="#125486"/>
<path id="Vector_19" d="M37.816 112.103L29.9484 126.257C29.7719 126.575 29.728 126.95 29.8263 127.3C29.9245 127.65 30.157 127.947 30.4724 128.125C30.7879 128.302 31.1606 128.347 31.5085 128.248C31.8564 128.149 32.151 127.915 32.3276 127.598L40.1953 113.443C40.2828 113.286 40.3386 113.113 40.3596 112.934C40.3806 112.755 40.3664 112.573 40.3178 112.4C40.2691 112.227 40.187 112.064 40.0762 111.923C39.9653 111.781 39.8278 111.663 39.6715 111.575C39.5153 111.487 39.3433 111.431 39.1655 111.41C38.9877 111.389 38.8075 111.403 38.6352 111.452C38.4629 111.501 38.3018 111.584 38.1613 111.695C38.0207 111.807 37.9034 111.946 37.816 112.103Z" fill="#125486"/>
<path id="Vector_20" d="M88.2391 131.222C90.5662 131.222 92.4527 129.323 92.4527 126.98C92.4527 124.637 90.5662 122.738 88.2391 122.738C85.9119 122.738 84.0254 124.637 84.0254 126.98C84.0254 129.323 85.9119 131.222 88.2391 131.222Z" fill="#125486"/>
<path id="Vector_21" d="M91.2132 22.6741C93.5403 22.6741 95.4269 20.7749 95.4269 18.432C95.4269 16.0892 93.5403 14.1899 91.2132 14.1899C88.886 14.1899 86.9995 16.0892 86.9995 18.432C86.9995 20.7749 88.886 22.6741 91.2132 22.6741Z" fill="#125486"/>
<path id="Vector_22" d="M59.2391 12.6927C61.5662 12.6927 63.4527 10.7934 63.4527 8.45058C63.4527 6.10774 61.5662 4.2085 59.2391 4.2085C56.9119 4.2085 55.0254 6.10774 55.0254 8.45058C55.0254 10.7934 56.9119 12.6927 59.2391 12.6927Z" fill="#125486"/>
<path id="Vector_23" d="M28.7518 22.1751C31.0789 22.1751 32.9654 20.2758 32.9654 17.933C32.9654 15.5902 31.0789 13.6909 28.7518 13.6909C26.4246 13.6909 24.5381 15.5902 24.5381 17.933C24.5381 20.2758 26.4246 22.1751 28.7518 22.1751Z" fill="#125486"/>
<path id="Vector_24" d="M31.4783 131.222C33.8055 131.222 35.692 129.323 35.692 126.98C35.692 124.637 33.8055 122.738 31.4783 122.738C29.1512 122.738 27.2646 124.637 27.2646 126.98C27.2646 129.323 29.1512 131.222 31.4783 131.222Z" fill="#125486"/>
</g>
<defs>
<clipPath id="clip0_105_272">
<rect width="116" height="134" fill="white"/>
</clipPath>
</defs>
</svg>
