<svg width="111" height="117" viewBox="0 0 111 117" fill="none" xmlns="http://www.w3.org/2000/svg">
<g id="undraw_fingerprint_re_uf3f 4" clip-path="url(#clip0_105_274)" filter="url(#filter0_d_105_274)">
<path id="Vector" d="M4.69443 46.8183C4.08829 47.01 3.44284 47.037 2.82308 46.8966C2.20331 46.7561 1.63114 46.4533 1.16419 46.0185C0.697235 45.5837 0.352001 45.0323 0.163259 44.4198C-0.0254837 43.8074 -0.0510686 43.1555 0.0890834 42.5299C2.19194 33.6953 10.188 12.0904 39.3179 3.00335C51.9359 -0.932822 64.0366 -1.00002 75.2693 2.80215C84.51 5.91714 90.6445 10.7917 93.5789 13.1478C94.3245 13.7434 94.8052 14.6138 94.9153 15.5673C95.0254 16.5209 94.7559 17.4795 94.166 18.2324C94.1587 18.2418 94.1514 18.2511 94.144 18.2603C93.5383 19.0155 92.663 19.5001 91.7067 19.6098C90.7505 19.7194 89.7899 19.4452 89.032 18.8463C83.7155 14.6162 67.5821 1.76516 41.4342 9.92196C15.9025 17.8866 8.96704 36.5163 7.16817 44.1382C7.03156 44.7679 6.72987 45.3488 6.29468 45.8203C5.85948 46.2918 5.30678 46.6365 4.69443 46.8183Z" fill="#3B96D1"/>
<path id="Vector_2" d="M84.0906 96.8576C83.8013 96.952 83.5012 97.009 83.1976 97.0271C60.4405 98.2648 45.9614 79.1728 45.367 78.3768L45.2568 78.193C44.8939 77.6247 36.133 64.1641 39.9899 53.4738C41.7614 48.5865 45.6794 45.1561 51.668 43.2879C57.2377 41.5505 61.7952 42.0643 65.6745 44.8617C68.8554 47.1409 70.8939 50.5397 72.8698 53.8218C76.9792 60.6367 79.4976 64.1039 87.3085 62.1035C90.7381 61.2245 92.3395 58.5167 93.071 56.4074C95.0408 50.6677 93.2951 42.8429 88.6765 36.9229C82.7096 29.2426 66.0112 16.4861 45.4084 22.9131C36.6103 25.6577 29.4099 31.0662 24.588 38.5135C20.5935 44.694 18.2712 52.3702 18.2203 59.5287C18.1402 72.8575 28.9575 90.3929 29.0601 90.5518C29.3091 90.9541 29.4773 91.402 29.555 91.8699C29.6326 92.3379 29.6183 92.8167 29.5127 93.279C29.4071 93.7413 29.2124 94.1781 28.9396 94.5644C28.6669 94.9508 28.3215 95.2791 27.9231 95.5306C27.912 95.5376 27.9009 95.5445 27.8898 95.5514C27.0736 96.0654 26.0899 96.2347 25.1512 96.0225C24.2124 95.8104 23.394 95.2339 22.8726 94.4175C22.3844 93.6157 10.8338 74.9186 10.9268 59.5139C11.0564 42.8164 21.1043 22.8886 43.2844 15.9696C53.5365 12.7714 64.3104 13.309 74.4494 17.5069C82.3078 20.7804 89.5807 26.1995 94.3892 32.3874C100.531 40.2858 102.695 50.6246 99.8986 58.694C98.0347 64.0735 94.1759 67.7854 89.0476 69.1125C75.6819 72.5459 70.4459 63.9015 66.6272 57.5957C62.706 51.131 60.537 48.1 53.7597 50.2142C50.0384 51.3751 47.7458 53.2352 46.7816 55.9078C45.4695 59.5613 46.713 64.2441 47.9872 67.527C48.0004 67.5613 48.0137 67.5955 48.0269 67.6297C49.6605 71.8023 52.2098 75.5466 55.483 78.5808C60.7265 83.4706 70.4607 90.4416 82.8673 89.7694C83.8157 89.7099 84.7488 90.0333 85.4611 90.6685C86.1734 91.3037 86.6067 92.1986 86.6656 93.1564C86.6663 93.168 86.667 93.1796 86.6676 93.1912C86.6967 94.0033 86.4601 94.8026 85.9943 95.4653C85.5285 96.128 84.8595 96.6173 84.0906 96.8576Z" fill="#3B96D1"/>
<path id="Vector_3" d="M56.4941 103.721C56.0197 103.869 55.5205 103.919 55.0266 103.867C54.5328 103.815 54.0545 103.662 53.6207 103.418C42.3965 96.996 34.517 88.3584 28.843 76.2521L28.8202 76.1774C25.2442 68.1057 23.0915 55.7733 27.84 45.3501C31.3455 37.6591 37.9257 32.2532 47.3646 29.3088C58.5285 25.8262 68.9236 28.3903 77.4551 36.6882C81.3351 40.518 84.4903 45.0307 86.7658 50.0046C87.1285 50.8995 87.1278 51.9026 86.7638 52.797C86.3998 53.6914 85.7018 54.4051 84.8208 54.7839C83.9397 55.1626 82.9465 55.1759 82.0558 54.8208C81.1652 54.4658 80.4487 53.7709 80.0614 52.8866C78.1348 48.7353 75.4746 44.9736 72.2114 41.7862C65.6354 35.4682 57.9909 33.6 49.4639 36.26C42.0952 38.5586 37.0211 42.6223 34.4237 48.3397C30.6779 56.5691 32.6064 66.845 35.4049 73.1692C40.408 83.8763 47.3476 91.4713 57.2264 97.1134C57.6345 97.3458 57.9932 97.6571 58.2822 98.0295C58.5711 98.4019 58.7846 98.8282 58.9104 99.2839C59.0362 99.7397 59.0719 100.216 59.0155 100.686C58.959 101.155 58.8115 101.609 58.5814 102.021C58.5722 102.038 58.563 102.054 58.5536 102.07C58.0935 102.859 57.3595 103.448 56.4941 103.721Z" fill="#3B96D1"/>
<path id="Vector_4" d="M57.6761 67.5299C60.2402 67.5299 62.3189 65.4308 62.3189 62.8414C62.3189 60.252 60.2402 58.1528 57.6761 58.1528C55.1119 58.1528 53.0332 60.252 53.0332 62.8414C53.0332 65.4308 55.1119 67.5299 57.6761 67.5299Z" fill="#E6E6E6"/>
</g>
<defs>
<filter id="filter0_d_105_274" x="0" y="0" width="117" height="126" filterUnits="userSpaceOnUse" color-interpolation-filters="sRGB">
<feFlood flood-opacity="0" result="BackgroundImageFix"/>
<feColorMatrix in="SourceAlpha" type="matrix" values="0 0 0 0 0 0 0 0 0 0 0 0 0 0 0 0 0 0 127 0" result="hardAlpha"/>
<feOffset dx="5" dy="5"/>
<feGaussianBlur stdDeviation="2"/>
<feComposite in2="hardAlpha" operator="out"/>
<feColorMatrix type="matrix" values="0 0 0 0 0.958333 0 0 0 0 0.958333 0 0 0 0 0.958333 0 0 0 1 0"/>
<feBlend mode="normal" in2="BackgroundImageFix" result="effect1_dropShadow_105_274"/>
<feBlend mode="normal" in="SourceGraphic" in2="effect1_dropShadow_105_274" result="shape"/>
</filter>
<clipPath id="clip0_105_274">
<rect width="108" height="117" fill="white"/>
</clipPath>
</defs>
</svg>
