<svg width="139" height="179" viewBox="0 0 139 179" fill="none" xmlns="http://www.w3.org/2000/svg">
<g id="undraw_lightbulb_moment_re_ulyo 3" clip-path="url(#clip0_105_273)" filter="url(#filter0_d_105_273)">
<path id="Vector" d="M112.718 85.3187C112.718 97.8409 107.789 108.532 98.4101 116.488C91.7547 122.137 81.5033 130.054 81.5033 138.425V145.35H50.289V138.425C50.289 129.966 39.9974 122.033 33.3822 116.488C24.215 108.811 19.0747 97.3937 19.0747 85.3187V85.0627C19.115 74.0408 24.0855 63.4844 32.893 55.7154C41.7006 47.9464 53.6238 43.601 66.0403 43.635C78.4568 43.6689 90.3497 48.0794 99.1031 55.8964C107.857 63.7135 112.754 74.2968 112.718 85.3187Z" fill="#3B96D1"/>
<path id="Path 2546" d="M81.5026 146.323C81.2121 146.323 80.9335 146.22 80.7281 146.038C80.5227 145.856 80.4073 145.608 80.4073 145.351V138.424C80.4073 130.282 89.4536 122.68 96.0594 117.13C96.607 116.669 97.1404 116.223 97.6522 115.787C106.79 108.033 111.62 97.4972 111.62 85.3195C111.62 62.5601 91.5357 44.7315 65.8965 44.7315H65.7673C53.7012 44.7435 42.1314 48.9959 33.5874 56.5589C25.0434 64.1219 20.2204 74.3803 20.1729 85.091V85.3179C20.1729 97.2438 25.2617 108.348 34.1354 115.783C34.5848 116.16 35.0517 116.548 35.5311 116.946C42.2219 122.507 51.3854 130.122 51.3854 138.424V145.351C51.3854 145.608 51.27 145.856 51.0646 146.038C50.8592 146.22 50.5806 146.323 50.2901 146.323C49.9996 146.323 49.7211 146.22 49.5157 146.038C49.3103 145.856 49.1949 145.608 49.1949 145.351V138.424C49.1949 130.965 40.433 123.683 34.0339 118.364C33.5523 117.964 33.0849 117.574 32.6316 117.195C23.3221 109.394 17.9824 97.7756 17.9824 85.3182V85.0849C18.0554 61.7369 39.4801 42.7857 65.764 42.7857H65.8994C78.5405 42.7274 90.6898 47.129 99.6749 55.0224C108.66 62.9157 113.745 73.6541 113.81 84.8753C113.811 85.0234 113.811 85.1714 113.81 85.3195C113.81 98.041 108.746 109.062 99.1662 117.192C98.6518 117.629 98.1162 118.079 97.565 118.542C91.2491 123.85 82.5967 131.118 82.5967 138.424V145.351C82.5967 145.608 82.4813 145.856 82.2759 146.038C82.0705 146.22 81.792 146.323 81.5015 146.323H81.5026Z" fill="#3F3D56"/>
<path id="Path 2547" d="M76.3014 158.798H55.4919C55.0078 158.798 54.5435 158.627 54.2012 158.323C53.8588 158.019 53.6665 157.607 53.6665 157.177C53.6665 156.748 53.8588 156.336 54.2012 156.032C54.5435 155.728 55.0078 155.557 55.4919 155.557H76.3014C76.7855 155.557 77.2499 155.728 77.5922 156.032C77.9345 156.336 78.1268 156.748 78.1268 157.177C78.1268 157.607 77.9345 158.019 77.5922 158.323C77.2499 158.627 76.7855 158.798 76.3014 158.798Z" fill="#3B96D1"/>
<path id="Vector_2" d="M68.1341 169.654H63.6556C62.1 169.655 60.5736 169.28 59.2403 168.568C59.0427 168.466 58.8895 168.308 58.8056 168.119C58.7216 167.93 58.7116 167.721 58.7772 167.527C58.8373 167.327 58.9703 167.15 59.1553 167.025C59.3404 166.899 59.5671 166.832 59.8001 166.833H71.9897C72.2226 166.832 72.4494 166.899 72.6344 167.025C72.8195 167.15 72.9525 167.327 73.0125 167.527C73.0782 167.721 73.0682 167.93 72.9842 168.119C72.9002 168.308 72.7471 168.466 72.5494 168.568C71.2161 169.28 69.6897 169.655 68.1341 169.654Z" fill="#3F3D56"/>
<path id="Vector_3" d="M76.3044 163.916L55.3714 163.914L55.3066 163.791C55.2448 163.564 55.2423 163.327 55.2992 163.099C55.3561 162.871 55.471 162.658 55.6351 162.476C55.8014 162.288 56.0135 162.137 56.2552 162.033C56.497 161.93 56.7622 161.876 57.0307 161.876H74.7582C75.0268 161.876 75.292 161.93 75.5338 162.033C75.7756 162.137 75.9877 162.288 76.154 162.476C76.3166 162.656 76.4311 162.866 76.4887 163.091C76.5463 163.316 76.5455 163.55 76.4865 163.774L76.4536 163.9L76.3044 163.916Z" fill="#3F3D56"/>
<path id="Path 2548" d="M17.487 47.124C17.0457 47.1245 16.6193 46.9825 16.2873 46.7244L0.611182 34.5778C0.252072 34.2938 0.0337201 33.8955 0.00358884 33.4694C-0.0265424 33.0434 0.133984 32.6239 0.450267 32.3023C0.766551 31.9807 1.21304 31.7829 1.6927 31.7518C2.17237 31.7208 2.64646 31.8591 3.01194 32.1366L18.6881 44.2832C18.9681 44.5001 19.1668 44.7878 19.2577 45.1076C19.3486 45.4275 19.3274 45.7644 19.1968 46.0733C19.0662 46.3822 18.8325 46.6483 18.527 46.8361C18.2215 47.0239 17.8586 47.1245 17.487 47.1244V47.124Z" fill="#E4E4E4"/>
<path id="Path 2549" d="M111.706 47.1239C111.334 47.124 110.972 47.0235 110.666 46.8356C110.361 46.6478 110.127 46.3817 109.996 46.0728C109.866 45.7639 109.844 45.427 109.935 45.1072C110.026 44.7873 110.225 44.4996 110.505 44.2827L126.181 32.1351C126.546 31.8576 127.02 31.7193 127.5 31.7504C127.98 31.7814 128.426 31.9792 128.742 32.3009C129.059 32.6225 129.219 33.0419 129.189 33.468C129.159 33.8941 128.941 34.2924 128.581 34.5764L112.905 46.723C112.574 46.9814 112.147 47.1239 111.706 47.1239Z" fill="#E4E4E4"/>
<path id="Path 2550" d="M81.5031 153.047H50.2888C49.8047 153.047 49.3403 152.877 48.998 152.573C48.6557 152.269 48.4634 151.857 48.4634 151.427C48.4634 150.997 48.6557 150.585 48.998 150.281C49.3403 149.977 49.8047 149.807 50.2888 149.807H81.5031C81.9872 149.807 82.4515 149.977 82.7938 150.281C83.1361 150.585 83.3285 150.997 83.3285 151.427C83.3285 151.857 83.1361 152.269 82.7938 152.573C82.4515 152.877 81.9872 153.047 81.5031 153.047Z" fill="#3B96D1"/>
<path id="Vector_4" d="M65.1293 110.717L58.6382 145.35H54.9326L61.5259 110.185C61.6053 109.761 61.8713 109.382 62.2653 109.132C62.6593 108.882 63.1491 108.781 63.627 108.852C64.1048 108.922 64.5315 109.158 64.8133 109.508C65.095 109.858 65.2087 110.292 65.1293 110.717Z" fill="#E6E6E6"/>
<path id="Vector_5" d="M77.6042 145.35H73.8986L67.4075 110.717C67.3281 110.292 67.4418 109.858 67.7235 109.508C68.0053 109.158 68.432 108.922 68.9098 108.852C69.3877 108.781 69.8775 108.882 70.2715 109.132C70.6655 109.382 70.9315 109.761 71.0109 110.185L77.6042 145.35Z" fill="#E6E6E6"/>
<path id="Path 2551" d="M54.0327 109.559C54.0327 109.13 54.225 108.717 54.5674 108.414C54.9097 108.11 55.374 107.939 55.8581 107.939H75.9349C76.419 107.939 76.8833 108.11 77.2257 108.414C77.568 108.717 77.7603 109.13 77.7603 109.559C77.7603 109.989 77.568 110.401 77.2257 110.705C76.8833 111.009 76.419 111.18 75.9349 111.18H55.8581C55.374 111.18 54.9097 111.009 54.5674 110.705C54.225 110.401 54.0327 109.989 54.0327 109.559Z" fill="#E6E6E6"/>
<path id="Path 2553" d="M65.8967 30.9491C65.4126 30.9491 64.9483 30.7784 64.6059 30.4745C64.2636 30.1706 64.0713 29.7585 64.0713 29.3287V1.62037C64.0713 1.19062 64.2636 0.778474 64.6059 0.474595C64.9483 0.170717 65.4126 0 65.8967 0C66.3808 0 66.8451 0.170717 67.1874 0.474595C67.5298 0.778474 67.7221 1.19062 67.7221 1.62037V29.3287C67.7221 29.7585 67.5298 30.1706 67.1874 30.4745C66.8451 30.7784 66.3808 30.9491 65.8967 30.9491Z" fill="#E4E4E4"/>
</g>
<defs>
<filter id="filter0_d_105_273" x="0" y="0" width="147" height="184" filterUnits="userSpaceOnUse" color-interpolation-filters="sRGB">
<feFlood flood-opacity="0" result="BackgroundImageFix"/>
<feColorMatrix in="SourceAlpha" type="matrix" values="0 0 0 0 0 0 0 0 0 0 0 0 0 0 0 0 0 0 127 0" result="hardAlpha"/>
<feOffset dx="5" dy="5"/>
<feGaussianBlur stdDeviation="2"/>
<feComposite in2="hardAlpha" operator="out"/>
<feColorMatrix type="matrix" values="0 0 0 0 0.958333 0 0 0 0 0.958333 0 0 0 0 0.958333 0 0 0 1 0"/>
<feBlend mode="normal" in2="BackgroundImageFix" result="effect1_dropShadow_105_273"/>
<feBlend mode="normal" in="SourceGraphic" in2="effect1_dropShadow_105_273" result="shape"/>
</filter>
<clipPath id="clip0_105_273">
<rect width="138" height="175" fill="white"/>
</clipPath>
</defs>
</svg>
