<svg width="115" height="115" viewBox="0 0 115 115" fill="none" xmlns="http://www.w3.org/2000/svg">
<g id="undraw_bike_ride_7xit 3">
<path id="Vector" d="M100.798 83.7451C100.613 84.0259 100.423 84.3023 100.233 84.5786L99.7985 83.6738L99.7295 83.5267L99.2988 82.6353L88.3329 59.7645L88.3287 59.7601L69.7391 21.0077V21.0033L69.3126 20.1163V20.1118L60.1127 0.931764L59.6777 0.0224609C60.005 0.0313757 60.3323 0.0447495 60.6597 0.062579L61.099 0.976337L70.2733 20.1118L70.2775 20.1163L70.704 21.0033V21.0077L88.8195 58.775V58.7794L89.246 59.6665V59.6709L100.212 82.5238L100.358 82.8314L100.798 83.7451Z" fill="#3F3D56"/>
<path id="Vector_2" d="M99.2343 21.0077H17.1665C17.3863 20.709 17.61 20.4104 17.8426 20.1162H98.5582C98.7908 20.4104 99.0145 20.709 99.2343 21.0077Z" fill="#3F3D56"/>
<path id="Vector_3" d="M109.632 58.7793C109.606 59.0779 109.576 59.3766 109.537 59.6708H88.5137V58.7793H109.632Z" fill="#3F3D56"/>
<path id="Vector_4" d="M20.2892 17.1787V89.7981C19.992 89.4727 19.7077 89.1429 19.4277 88.813V18.1638C19.7076 17.834 19.992 17.5041 20.2892 17.1787Z" fill="#3F3D56"/>
<path id="Vector_5" d="M99.9975 82.6343H19.8584V83.5257H99.9975V82.6343Z" fill="#3F3D56"/>
<path id="Vector_6" d="M70.03 41.5747C70.03 49.1726 59.2329 70.5983 55.1777 78.3775C55.0305 78.6606 54.8119 78.8971 54.5452 79.062C54.2785 79.2269 53.9736 79.3139 53.6629 79.3139C53.3523 79.3139 53.0474 79.2269 52.7807 79.062C52.514 78.8971 52.2954 78.6606 52.1482 78.3775C48.093 70.5983 37.2959 49.1726 37.2959 41.5747C37.2959 37.0825 39.0203 32.7742 42.0897 29.5977C45.1591 26.4213 49.3221 24.6367 53.6629 24.6367C58.0037 24.6367 62.1668 26.4213 65.2362 29.5977C68.3056 32.7742 70.03 37.0825 70.03 41.5747Z" fill="#3B96D1"/>
<path id="Vector_7" d="M53.6629 49.1521C57.7068 49.1521 60.985 45.7595 60.985 41.5746C60.985 37.3896 57.7068 33.9971 53.6629 33.9971C49.619 33.9971 46.3408 37.3896 46.3408 41.5746C46.3408 45.7595 49.619 49.1521 53.6629 49.1521Z" fill="white"/>
<path id="Vector_8" d="M53.6629 86.5938C55.3281 86.5938 56.6779 85.1969 56.6779 83.4737C56.6779 81.7505 55.3281 80.3535 53.6629 80.3535C51.9978 80.3535 50.6479 81.7505 50.6479 83.4737C50.6479 85.1969 51.9978 86.5938 53.6629 86.5938Z" fill="#3B96D1"/>
<path id="Vector_9" d="M99.8977 83.5266H99.9968V83.3795C99.9667 83.4305 99.9336 83.4797 99.8977 83.5266ZM99.2345 21.0076C99.0147 20.7089 98.7909 20.4103 98.5583 20.1161C93.9833 14.1758 88.2361 9.31417 81.7007 5.85597C75.1652 2.39777 67.9919 0.422603 60.6599 0.0624104C60.3327 0.0445631 60.0054 0.0311927 59.678 0.0222958C59.1869 0.00892368 58.6958 7.58625e-06 58.2006 7.58625e-06C51.0772 -0.00392436 44.0304 1.52063 37.5052 4.47741C30.9799 7.43419 25.1179 11.759 20.2893 17.1787C19.9921 17.5041 19.7078 17.8339 19.4279 18.1638C18.8809 18.8012 18.3525 19.4519 17.8428 20.1161C17.6102 20.4103 17.3864 20.7089 17.1667 21.0076C9.88781 30.8278 6.13334 42.9608 6.54584 55.33C6.95834 67.6992 11.5122 79.5355 19.4279 88.813C19.7078 89.1428 19.9921 89.4727 20.2893 89.7981C25.4945 95.6317 31.8908 100.191 39.013 103.144C46.1352 106.098 53.804 107.371 61.4614 106.871C69.1188 106.371 76.5722 104.11 83.2792 100.254C89.9862 96.398 95.7782 91.0429 100.234 84.5785C100.423 84.3021 100.613 84.0258 100.798 83.745C105.574 76.5833 108.576 68.3157 109.537 59.6707C109.576 59.3766 109.606 59.0779 109.632 58.7793C109.8 57.0409 109.884 55.2773 109.886 53.4884C109.899 41.7412 106.154 30.32 99.2345 21.0076ZM108.671 59.6707C107.734 67.9687 104.883 75.912 100.359 82.8312C100.242 83.014 100.122 83.1967 99.9968 83.3795C99.9667 83.4305 99.9336 83.4797 99.8977 83.5266C99.8677 83.5756 99.8332 83.6246 99.7987 83.6736C95.405 90.1704 89.6472 95.5535 82.9569 99.4194C76.2667 103.285 68.8175 105.534 61.168 105.996C53.5185 106.458 45.8671 105.122 38.7875 102.089C31.7079 99.0549 25.3838 94.402 20.2893 88.4787C19.9921 88.1399 19.7036 87.8012 19.4279 87.4535C11.8541 78.219 7.59936 66.558 7.38505 54.4476C7.17074 42.3373 11.0101 30.5229 18.252 21.0075C18.4804 20.7089 18.7086 20.4103 18.9454 20.1161C19.1006 19.9155 19.2598 19.7194 19.4279 19.5232C19.7036 19.1756 19.9921 18.8368 20.2893 18.498C25.0474 12.9575 30.8863 8.52365 37.4211 5.48881C43.9558 2.45397 51.0379 0.887087 58.2005 0.89146C58.8424 0.89146 59.4798 0.90483 60.1128 0.931575C60.4445 0.940489 60.772 0.958318 61.0992 0.976148C68.1088 1.39083 74.9591 3.30594 81.2169 6.60041C87.4748 9.89489 93.0042 14.4971 97.4556 20.1161C97.6924 20.4103 97.9208 20.7089 98.149 21.0075C105.205 30.2581 109.037 41.7029 109.024 53.4884C109.024 55.2758 108.94 57.0394 108.77 58.7792C108.74 59.0779 108.71 59.3766 108.671 59.6707ZM99.8977 83.5266H99.9968V83.3795C99.9667 83.4305 99.9336 83.4797 99.8977 83.5266Z" fill="#CCCCCC"/>
</g>
</svg>
