<svg width="520" height="340" viewBox="0 0 520 340" fill="none" xmlns="http://www.w3.org/2000/svg">
<path d="M412.246 161.296C412.25 180.729 408.429 199.971 401.003 217.925C393.576 235.878 382.689 252.191 368.963 265.932C355.237 279.673 338.941 290.571 321.006 298.006C303.072 305.441 283.85 309.265 264.438 309.261C182.807 309.261 116.63 243.014 116.63 161.296C116.616 145.401 119.161 129.607 124.168 114.523C133.998 85.0634 152.831 59.4426 178.002 41.2836C203.174 23.1246 233.411 13.3463 264.438 13.3316C291.197 13.3222 317.456 20.5873 340.412 34.3512C363.368 48.1152 382.159 67.8612 394.78 91.4816C397.909 97.3093 400.639 103.343 402.951 109.542C403.271 110.405 403.583 111.268 403.887 112.139V112.147C405.242 115.978 406.435 119.88 407.467 123.853C410.65 136.079 412.256 148.662 412.246 161.296Z" fill="#0C3656"/>
<path d="M248.266 61.4662C241.624 57.8704 234.249 55.8405 226.704 55.5315C219.159 55.2225 211.643 56.6424 204.729 59.6831C198.642 62.3351 192.232 67.0925 190.201 75.6835C198.414 70.8313 209.046 78.4978 211.159 90.7964L210.666 90.9325C209.55 99.451 212.042 108.725 216.866 114.007C217.499 108.521 221.103 104.787 224.648 102.454C228.192 100.122 232.113 98.4272 234.819 94.4177C238.026 89.6645 238.841 82.7177 240.115 76.3805C241.389 70.0433 243.806 63.2321 248.266 61.4662Z" fill="white"/>
<path d="M202.293 133.956C200.018 137.375 196.98 139.521 194.254 142.192C191.536 144.872 188.949 148.489 188.407 153.133C188.062 156.109 188.596 159.134 188.522 162.143C188.448 165.151 187.446 168.538 185.402 169.286C182.175 170.454 179.711 164.453 176.394 164.034C173.758 163.705 171.385 167.856 172.148 171.456C172.912 175.057 176.5 176.652 178.562 174.301C180.426 177.433 179.112 183.113 176.312 184.075C176.016 186.047 175.72 188.012 175.433 189.985C168.355 185.028 161.202 179.989 155.183 172.731C148.489 164.726 144.337 154.902 143.26 144.519C142.48 136.175 143.638 126.631 139.811 120.211C136.748 115.074 131.493 113.939 126.763 114.26C125.901 114.317 125.03 114.416 124.168 114.523C126.958 106.136 130.5 98.0198 134.753 90.2731C135.715 89.8596 136.609 89.3025 137.405 88.6208C141.807 84.8806 143.761 77.3097 147.333 72.0734C147.563 71.7363 147.801 71.4075 148.047 71.087C151.702 66.311 156.596 63.8531 161.326 61.5678C171.795 56.4796 182.569 51.3254 193.622 52.0324L190.477 52.3365C186.806 62.6283 183.133 72.9201 179.457 83.2119C178.898 84.7901 178.334 86.3711 177.765 87.955C175.679 93.8077 173.528 100.039 173.848 106.59C174.037 110.47 175.384 114.613 177.946 115.945C180.335 117.178 182.947 115.665 185.254 114.169C186.231 113.545 187.2 112.92 188.177 112.287C191.684 110.026 195.568 107.708 199.271 109.221C202.662 110.602 205.167 115.213 205.643 120.187C206.08 125.021 204.902 129.864 202.293 133.956Z" fill="white"/>
<path d="M223.147 204.22C212.906 197.908 202.666 191.596 192.425 185.284L192.599 184.836C186.232 187.264 183.588 198.594 184.64 207.859C185.693 217.125 189.261 225.408 191.063 234.436C193.494 246.79 192.576 259.571 188.406 271.451C201.872 256.325 213.789 239.886 223.979 222.381C225.402 220.175 226.487 217.767 227.197 215.238C227.847 212.548 227.747 209.314 226.444 207.157C225.606 205.919 224.473 204.91 223.147 204.22Z" fill="white"/>
<path d="M182.731 89.387C181.643 91.8345 181.225 95.0981 182.212 97.6305C183.219 100.217 185.35 101.386 187.311 102.359L192.97 105.167C194.852 106.101 196.881 107.044 198.8 106.276C201.115 105.349 202.72 101.716 202.305 98.3439C201.863 94.7554 199.603 92.287 197.513 90.185C194.589 87.2433 191.664 84.3017 188.74 81.3601L187.092 83.3809C185.309 85.1216 183.834 87.1524 182.731 89.387Z" fill="white"/>
<path d="M381.912 127.749C384.458 128.349 387.004 128.95 389.549 129.55C389.106 138.156 384.844 146.122 379.129 149.007C376.747 150.207 374.095 150.651 372.124 152.895C370.342 154.934 369.439 158.107 368.61 161.14C367.156 166.434 365.703 171.728 364.249 177.022C362.689 182.727 360.686 189.064 356.629 191.12C353.147 192.887 349.165 190.725 346.488 187.1C343.811 183.475 342.177 178.6 340.592 173.849C340.69 179.027 338.284 184.108 334.877 185.908C331.461 187.708 327.305 186.08 325.023 182.061C323.38 179.175 322.699 175.369 321.089 172.443C319.48 169.517 316.105 167.84 314.348 170.585C313.19 172.41 313.338 175.205 312.763 177.523C311.868 181.124 309.158 183.384 306.473 183.582C303.796 183.779 301.185 182.233 298.943 180.137C294.32 175.797 290.912 168.908 289.59 161.255C289.007 157.844 288.843 154.128 289.853 150.931C290.863 147.733 293.302 145.267 295.724 145.875C297.317 142.505 294.172 138.033 291.339 138.428C288.498 138.822 286.272 141.872 283.94 144.215C281.616 146.557 278.365 148.259 276.024 145.933C276.041 148.095 274.283 149.525 272.764 149.344C271.253 149.171 269.907 147.955 268.519 147.092C263.157 143.746 256.349 145.966 252.539 152.295C254.921 142.151 258.411 130.511 265.727 128.127C268.716 127.149 271.976 127.955 274.801 126.261C279.802 123.261 280.812 111.925 276.492 107.248C277.043 111.67 276.936 116.833 274.604 119.858C272.272 122.883 267.378 120.91 267.673 116.438C267 119.521 263.65 119.989 262.106 117.622C260.554 115.255 260.685 111.383 261.786 108.555C262.886 105.727 264.758 103.697 266.573 101.749C270.473 97.5645 274.431 93.3311 278.948 90.7005C283.472 88.0701 288.695 87.1823 293.228 89.7964C295.617 91.1774 297.719 93.4791 300.158 94.6957C302.597 95.9204 305.693 95.7643 307.31 92.9036C309.125 89.7141 308.271 84.9792 308.945 80.9924C310.152 73.9477 317.189 70.6514 321.089 75.304C318.174 74.556 315.161 78.0085 314.799 82.1926C314.43 86.3767 316.54 90.602 319.365 91.8679C324.111 93.9723 328.759 88.6784 332.347 83.7791C336.092 78.6497 339.842 73.523 343.597 68.399C344.197 67.5266 344.87 66.7071 345.609 65.9494C346.785 64.8017 348.353 64.1445 349.995 64.111C351.637 64.0774 353.231 64.6699 354.453 65.7686C358.247 68.8675 360.029 75.2219 363.141 79.595C367.657 85.9493 374.415 87.4947 380.705 88.7277C385.394 89.6402 390.086 90.5581 394.78 91.4815C397.909 97.3092 400.639 103.343 402.95 109.542C395.002 112.92 387.669 119.241 381.912 127.749Z" fill="white"/>
<path d="M397.071 226.656C393.553 233.807 389.461 240.66 384.836 247.149C381.88 245.883 378.702 248.143 375.934 250.264C373.044 252.484 369.57 254.646 366.606 252.624C363.576 250.552 362.599 244.757 363.56 240.162C364.52 235.575 366.918 231.925 369.242 228.456C371.705 224.773 374.341 220.951 377.766 219.52C381.198 218.09 385.608 220.112 386.609 224.995L389.04 224.913C387.677 223.039 388.391 219.159 390.223 218.477C392.333 217.679 394.164 220.581 395.412 223.146C395.971 224.305 396.537 225.472 397.071 226.656Z" fill="white"/>
<path d="M303.98 191.934C298.756 192.263 294.617 185.825 291.867 179.491C289.117 173.157 286.608 165.913 281.894 162.689C279.201 160.847 276.13 160.594 273.208 159.702C270.286 158.809 267.228 156.962 265.832 153.2L262.518 151.86C258.141 154.324 253.706 156.832 249.935 160.841C245.705 165.339 243.07 171.105 242.437 177.25C241.804 183.891 244.142 191.295 248.51 193.79C251.962 195.761 255.98 194.519 259.476 196.323C263.844 198.578 266.438 205.127 267.419 211.593C268.401 218.06 268.152 224.78 268.855 231.32C269.557 237.86 271.493 244.665 275.499 248.016C280.512 252.21 287.867 248.725 290.116 241.091C291.219 237.346 291.181 233.12 292.007 229.233C293.46 222.387 297.381 217.309 300.491 211.693C303.6 206.078 306.048 198.451 303.98 191.934Z" fill="white"/>
<path d="M252.355 124.666C252.842 125.115 253.297 125.598 253.715 126.112C254.148 126.86 254.37 127.712 254.355 128.576C254.34 129.441 254.09 130.285 253.632 131.017C254.261 130.981 254.876 130.815 255.438 130.529C256 130.243 256.496 129.844 256.896 129.356C257.85 128.269 258.689 127.086 259.399 125.827C259.932 124.957 260.499 123.781 260.137 122.748C259.891 122.043 259.307 121.742 258.898 121.211C258.249 120.371 258.089 119.036 257.753 117.882C257.028 115.391 255.291 113.559 253.406 113.297L253.668 113.347C252.881 113.617 252.331 114.869 252.505 115.995C252.663 117.021 253.322 117.873 253.256 118.919C253.162 120.423 251.66 121.129 251.567 122.634C251.553 123.388 251.836 124.119 252.355 124.666Z" fill="white"/>
<path d="M243.403 99.1009C243.411 99.0988 243.419 99.0984 243.427 99.0964C243.587 98.9498 243.736 98.7909 243.872 98.6211L243.403 99.1009Z" fill="#E6E6E6"/>
<path d="M244.97 106.163C246.125 105.419 246.77 103.362 246.388 101.641C246.009 99.9306 244.666 98.7805 243.427 99.0964C243.067 99.4612 242.621 99.7285 242.13 99.8732C241.639 100.018 241.119 100.035 240.62 99.9237C239.854 99.7263 239.013 99.2179 238.348 99.7956C237.968 100.227 237.702 100.747 237.575 101.308C237.329 102.064 237.083 102.819 236.837 103.575C236.72 103.845 236.69 104.145 236.75 104.434C236.797 104.549 236.873 104.651 236.971 104.729C237.068 104.806 237.184 104.858 237.307 104.877C238.783 105.313 240.258 105.748 241.733 106.184C242.809 106.501 243.97 106.807 244.97 106.163Z" fill="white"/>
<path d="M356.353 203.654C355.671 202.536 354.989 201.419 354.307 200.301C353.637 199.006 352.721 197.855 351.611 196.912C351.367 196.707 351.084 196.553 350.78 196.459C350.476 196.366 350.156 196.334 349.839 196.365C349.522 196.397 349.215 196.492 348.935 196.645C348.655 196.797 348.409 197.004 348.21 197.253L348.293 197.891C349.848 199.844 351.492 202.013 351.887 204.91C352.042 206.053 351.988 207.235 352.124 208.382C352.261 209.53 352.648 210.719 353.388 211.214C354.462 211.932 355.723 210.873 356.487 209.581C357.17 208.52 357.477 207.259 357.357 206.002C357.187 205.159 356.845 204.36 356.353 203.654Z" fill="white"/>
<path d="M386.706 160.965C386.904 159.67 387.101 158.375 387.298 157.08C387.618 155.658 387.658 154.187 387.415 152.749C387.36 152.435 387.243 152.136 387.071 151.868C386.898 151.6 386.674 151.369 386.411 151.189C386.148 151.009 385.852 150.883 385.54 150.82C385.228 150.756 384.906 150.755 384.594 150.818L384.247 151.36C384.18 153.856 384.043 156.575 382.481 159.046C381.865 160.021 381.063 160.89 380.429 161.856C379.796 162.822 379.327 163.982 379.574 164.837C379.934 166.079 381.58 166.081 382.996 165.586C384.201 165.214 385.247 164.447 385.964 163.409C386.376 162.654 386.629 161.822 386.706 160.965Z" fill="#E6E6E6"/>
<path d="M367.052 205.109C367.385 204.15 366.904 203.049 366.802 201.988C366.754 200.618 367.116 199.265 367.844 198.104C368.566 197.009 369.114 195.807 369.467 194.543C369.615 193.967 369.588 193.359 369.389 192.799C369.163 192.291 368.616 192.06 368.302 192.462L368.974 192.894C368.067 192.733 367.136 192.778 366.25 193.026C365.744 193.22 365.292 193.533 364.933 193.939C364.574 194.344 364.317 194.83 364.185 195.356C364.075 196.176 363.893 196.985 363.644 197.773C363.244 198.597 362.469 198.871 361.982 199.594C361.649 200.235 361.482 200.949 361.494 201.671C361.506 202.393 361.697 203.101 362.05 203.73C362.662 204.76 363.634 205.526 364.778 205.878C365.598 206.172 366.677 206.188 367.052 205.109Z" fill="white"/>
<path d="M386.105 210.863C386.401 211.635 386.798 212.365 387.285 213.032C388.197 213.952 389.437 213.387 390.544 213.163C391.548 213.005 392.576 213.121 393.52 213.5C394.463 213.879 395.287 214.506 395.903 215.315C395.474 213.173 394.537 211.165 393.172 209.46C391.807 207.755 390.053 206.402 388.057 205.517C385.449 204.452 382.701 204.349 379.989 204.254L379.52 204.374C380.714 207.853 384.463 207.775 386.105 210.863Z" fill="white"/>
<path d="M305.409 217.98L305.416 217.995C305.462 217.908 305.507 217.82 305.553 217.732L305.409 217.98Z" fill="#E6E6E6"/>
<path d="M302.519 223.581C301.889 224.726 301.346 225.918 300.897 227.146C300.303 229.136 299.909 231.18 299.722 233.248C299.575 234.424 299.53 235.926 300.266 236.499C300.477 236.639 300.732 236.698 300.984 236.664C301.235 236.629 301.465 236.505 301.632 236.313C302.04 235.88 302.375 235.382 302.622 234.84C304.068 232.346 305.191 229.678 305.964 226.9C306.668 223.974 306.661 220.529 305.416 217.995C304.451 219.857 303.485 221.719 302.519 223.581Z" fill="white"/>
<path d="M274.635 74.3697C275.094 74.8189 275.675 75.1239 276.305 75.247C276.935 75.3701 277.587 75.306 278.182 75.0625C279.412 74.524 280.541 73.7776 281.518 72.8561C282.328 72.2564 283.015 71.5065 283.541 70.6471C283.831 70.1335 284.017 69.5676 284.088 68.982C284.159 68.3963 284.114 67.8023 283.955 67.2342C283.498 65.8963 282.339 65.4478 281.316 65.1442C279.678 64.658 278.04 64.1719 276.403 63.6858L277.587 62.6169C276.368 61.962 275.02 63.1773 274.258 64.6819C273.77 65.6644 273.429 66.7138 273.248 67.7961C272.84 70.1577 273.239 72.97 274.635 74.3697Z" fill="#E6E6E6"/>
<path d="M303.548 64.6532C304.009 65.1626 304.647 65.4771 305.332 65.5329C306.017 65.5886 306.697 65.3815 307.235 64.9535C307.698 64.6055 308.082 64.1638 308.363 63.6571C308.644 63.1505 308.815 62.5903 308.866 62.013C308.982 60.7235 308.345 59.2902 307.435 59.1789L307.643 57.9715C305.891 57.6547 303.735 57.5913 302.795 59.7216C302.479 60.5376 302.382 61.4226 302.514 62.288C302.646 63.1534 303.002 63.969 303.548 64.6532Z" fill="#E6E6E6"/>
<path d="M299.686 0.448689C289.413 -0.711373 279.1 2.26146 271.016 8.71317C262.932 15.1649 257.74 24.567 256.581 34.8511C254.168 56.2668 265.438 102.771 285.987 122.022C295.662 85.1391 329.566 63.262 334.052 43.5992C338.845 22.5887 321.079 2.86439 299.686 0.448689Z" fill="#125486"/>
<path d="M292.58 48.0577C299.602 48.0577 305.293 42.3599 305.293 35.3312C305.293 28.3026 299.602 22.6047 292.58 22.6047C285.559 22.6047 279.867 28.3026 279.867 35.3312C279.867 42.3599 285.559 48.0577 292.58 48.0577Z" fill="white"/>
<path d="M279.213 140.372C283.812 140.372 287.54 136.64 287.54 132.037C287.54 127.433 283.812 123.701 279.213 123.701C274.615 123.701 270.887 127.433 270.887 132.037C270.887 136.64 274.615 140.372 279.213 140.372Z" fill="#125486"/>
<path opacity="0.2" d="M303.099 26.2137C304.53 27.0745 305.778 28.209 306.771 29.5524C307.764 30.8959 308.483 32.422 308.887 34.0436C309.291 35.6652 309.371 37.3505 309.125 39.0034C308.878 40.6563 308.308 42.2443 307.448 43.6768C306.588 45.1093 305.455 46.3583 304.113 47.3523C302.771 48.3464 301.247 49.0661 299.627 49.4704C296.355 50.2868 292.894 49.7688 290.004 48.0304C292.95 48.6866 296.034 48.2716 298.703 46.8597C301.372 45.4478 303.452 43.1311 304.57 40.3243C305.689 37.5176 305.773 34.404 304.808 31.5407C303.842 28.6775 301.891 26.2516 299.302 24.6973C300.641 24.9944 301.924 25.5064 303.099 26.2137Z" fill="#231F20"/>
<path opacity="0.2" d="M334.101 43.6401C329.615 63.303 295.711 85.1801 286.036 122.063C284.104 120.236 282.309 118.267 280.667 116.174C291.539 81.5049 323.332 60.4386 327.667 41.4408C331.546 24.4374 320.649 8.27791 305.013 1.45166C323.94 6.21476 338.494 24.3861 334.101 43.6401Z" fill="#231F20"/>
<path d="M180.552 50.1054C172.837 49.2343 165.092 51.4668 159.022 56.3118C152.951 61.1568 149.052 68.2174 148.182 75.9405C146.37 92.0229 154.833 126.946 170.264 141.403C177.53 113.705 202.991 97.2761 206.36 82.51C209.959 66.7318 196.617 51.9195 180.552 50.1054Z" fill="#125486"/>
<path d="M175.216 85.8582C180.489 85.8582 184.763 81.5793 184.763 76.3011C184.763 71.0228 180.489 66.7439 175.216 66.7439C169.944 66.7439 165.669 71.0228 165.669 76.3011C165.669 81.5793 169.944 85.8582 175.216 85.8582Z" fill="white"/>
<path d="M165.178 155.183C168.631 155.183 171.431 152.381 171.431 148.924C171.431 145.466 168.631 142.664 165.178 142.664C161.724 142.664 158.925 145.466 158.925 148.924C158.925 152.381 161.724 155.183 165.178 155.183Z" fill="#125486"/>
<path opacity="0.2" d="M183.115 69.454C184.19 70.1004 185.127 70.9524 185.873 71.9613C186.618 72.9701 187.158 74.1162 187.462 75.334C187.765 76.5517 187.825 77.8174 187.64 79.0586C187.455 80.2999 187.027 81.4924 186.381 82.5682C185.736 83.6439 184.885 84.5819 183.877 85.3284C182.869 86.0749 181.724 86.6153 180.508 86.9189C179.291 87.2225 178.027 87.2833 176.787 87.0978C175.547 86.9122 174.356 86.484 173.281 85.8376C175.494 86.3303 177.81 86.0187 179.814 84.9584C181.818 83.8981 183.38 82.1583 184.22 80.0506C185.06 77.9428 185.123 75.6046 184.398 73.4544C183.673 71.3043 182.208 69.4825 180.264 68.3152C181.269 68.5383 182.232 68.9229 183.115 69.454Z" fill="#231F20"/>
<path opacity="0.2" d="M206.397 82.541C203.028 97.3071 177.568 113.736 170.302 141.434C168.851 140.062 167.503 138.583 166.269 137.012C174.434 110.976 198.31 95.1561 201.565 80.8894C204.478 68.1204 196.295 55.9852 184.552 50.8589C198.766 54.4358 209.696 68.0818 206.397 82.541Z" fill="#231F20"/>
<path d="M418.281 44.364C415.529 43.2703 412.589 42.73 409.628 42.774C406.667 42.8179 403.744 43.4452 401.025 44.6201C398.306 45.795 395.845 47.4945 393.783 49.6214C391.72 51.7484 390.096 54.2612 389.003 57.0165C384.409 68.6038 383.647 96.2752 392.198 110.144C403.192 91.0262 425.434 83.967 430.92 73.6731C436.782 62.6736 429.857 48.9636 418.281 44.364Z" fill="#125486"/>
<path d="M409.025 70.1176C413.087 70.1176 416.38 66.8215 416.38 62.7557C416.38 58.6898 413.087 55.3938 409.025 55.3938C404.964 55.3938 401.671 58.6898 401.671 62.7557C401.671 66.8215 404.964 70.1176 409.025 70.1176Z" fill="white"/>
<path d="M386.898 119.526C389.559 119.526 391.715 117.368 391.715 114.704C391.715 112.041 389.559 109.883 386.898 109.883C384.238 109.883 382.082 112.041 382.082 114.704C382.082 117.368 384.238 119.526 386.898 119.526Z" fill="#125486"/>
<path opacity="0.2" d="M416.28 59.2646C417.627 60.6746 418.36 62.5624 418.317 64.5131C418.275 66.4638 417.461 68.3179 416.054 69.668C414.647 71.0181 412.762 71.7537 410.813 71.7133C408.864 71.6729 407.011 70.8596 405.661 69.4523C407.206 70.2664 408.991 70.5034 410.695 70.1209C412.398 69.7383 413.911 68.7613 414.961 67.3645C416.011 65.9678 416.53 64.2426 416.425 62.4977C416.321 60.7528 415.599 59.1021 414.39 57.8411C415.092 58.2104 415.731 58.6911 416.28 59.2646Z" fill="#231F20"/>
<path opacity="0.2" d="M430.942 73.7035C425.456 83.9974 403.214 91.0566 392.22 110.174C391.418 108.86 390.715 107.489 390.115 106.071C401.442 88.3709 422.383 81.4437 427.684 71.4979C432.428 62.5962 428.796 51.9201 421.103 45.7334C430.946 51.2687 436.314 63.6236 430.942 73.7035Z" fill="#231F20"/>
<path opacity="0.2" d="M480.129 121.428L466.125 137.67L442.987 130.83L468.212 142.466L480.129 121.428Z" fill="black"/>
<path d="M445.823 275.126C438.36 275.126 430.18 274.745 421.283 273.984C375.268 270.036 315.663 256.314 253.449 235.344C191.236 214.374 133.846 188.661 91.8519 162.944C71.3954 150.416 55.6952 138.557 45.1878 127.696C34.0632 116.199 29.1972 106.177 30.7242 97.9096C33.6997 81.8041 60.0462 78.2806 81.6243 78.1609L81.6316 80.5031C51.9992 80.6674 34.5176 87.0508 32.4069 98.4769C29.7181 113.03 51.6462 135.749 92.568 160.811C134.47 186.472 191.754 212.135 253.869 233.072C315.984 254.008 375.479 267.707 421.393 271.646C466.233 275.493 493.494 269.353 496.182 254.799C498.414 242.716 483.699 224.917 454.746 204.678L455.543 202.598C476.58 217.304 501 238.396 497.865 255.367C496.337 263.634 488.556 269.392 474.736 272.482C466.859 274.244 457.183 275.126 445.823 275.126Z" fill="#125486"/>
</svg>
