<svg width="382" height="296" viewBox="0 0 382 296" fill="none" xmlns="http://www.w3.org/2000/svg">
<g clip-path="url(#clip0_3173_1364)">
<path d="M49.8358 130.253C35.6162 124.291 24.2173 113.129 17.9726 99.0516C14.4788 91.0772 12.773 82.4295 11.8018 73.7799C10.8489 65.2939 10.6544 56.3425 14.3129 48.6237C16.3161 44.3975 19.3818 40.7614 23.2114 38.0697C27.0411 35.378 31.5039 33.7225 36.1651 33.2646C40.8262 32.8067 45.5267 33.562 49.8085 35.4569C54.0903 37.3517 57.8073 40.3215 60.5973 44.0768C62.9987 47.3091 64.6871 51.1876 64.7302 55.2115C64.8206 63.652 58.0216 70.4258 55.039 78.3242C51.9567 86.4865 53.0676 95.5302 53.5916 104.237C54.1156 112.945 53.7834 122.384 48.4908 129.325" fill="#F2F2F2"/>
<path d="M304.862 236.982C319.879 233.471 332.983 224.362 341.492 211.522C346.27 204.241 349.396 195.998 351.799 187.632C354.156 179.423 355.844 170.63 353.526 162.41C352.257 157.909 349.842 153.814 346.516 150.522C343.19 147.23 339.066 144.855 334.546 143.628C330.027 142.4 325.266 142.362 320.728 143.518C316.189 144.673 312.028 146.982 308.65 150.221C305.742 153.008 303.429 156.551 302.714 160.511C301.215 168.819 306.787 176.629 308.408 184.914C310.084 193.475 307.477 202.207 305.506 210.705C303.534 219.203 302.285 228.566 306.343 236.29" fill="#F2F2F2"/>
<path d="M190.339 223.428C168.935 223.496 148.11 216.489 131.113 203.501C114.472 190.809 102.314 173.155 96.4041 153.1L97.2504 152.854C109.203 193.889 147.483 222.548 190.339 222.548C203.153 222.572 215.843 220.045 227.667 215.113L228.007 215.925C216.075 220.901 203.27 223.452 190.339 223.428Z" fill="#E6E6E6"/>
<path d="M282.868 96.8684C270.153 56.2911 232.969 29.0281 190.339 29.0281C177.707 29.0053 165.193 31.4614 153.51 36.2568L153.175 35.4433C168.803 29.054 185.821 26.8067 202.577 28.9194C219.332 31.0321 235.256 37.4331 248.802 47.5011C265.288 59.8301 277.494 77.0012 283.709 96.606L282.868 96.8684Z" fill="#E6E6E6"/>
<path d="M309.301 254.215C269.215 254.215 236.602 221.66 236.602 181.645C236.602 141.63 269.215 109.075 309.301 109.075C349.387 109.075 382 141.63 382 181.645C382 221.66 349.387 254.215 309.301 254.215ZM309.301 109.955C269.701 109.955 237.483 142.115 237.483 181.645C237.483 221.175 269.701 253.335 309.301 253.335C348.901 253.335 381.119 221.175 381.119 181.645C381.119 142.115 348.901 109.955 309.301 109.955Z" fill="#0C3656"/>
<path d="M72.699 145.14C32.6126 145.14 0 112.585 0 72.5701C0 32.5547 32.6126 0 72.699 0C112.785 0 145.398 32.5547 145.398 72.5701C145.398 112.585 112.785 145.14 72.699 145.14ZM72.699 0.879637C33.0985 0.879637 0.881199 33.0399 0.881199 72.5701C0.881199 112.1 33.0985 144.26 72.699 144.26C112.299 144.26 144.517 112.1 144.517 72.5701C144.517 33.0399 112.299 0.879637 72.699 0.879637Z" fill="#0C3656"/>
<path d="M67.0465 72.9781L60.6267 85.4242L66.9655 89.0516C66.9655 89.0516 71.314 75.0712 71.4421 74.5407C72.0978 74.2732 72.6567 73.8133 73.0448 73.2218C73.433 72.6303 73.6321 71.9351 73.6159 71.2282C73.5996 70.5213 73.3688 69.836 72.9538 69.2629C72.5389 68.6898 71.9595 68.256 71.2922 68.0188C70.6249 67.7816 69.9012 67.7522 69.2168 67.9345C68.5324 68.1168 67.9196 68.5022 67.4594 69.0397C66.9992 69.5772 66.7133 70.2416 66.6396 70.9448C66.5659 71.6481 66.7077 72.3571 67.0465 72.9781Z" fill="#F3B0BA"/>
<path d="M34.1003 74.6709C36.964 85.2619 47.2571 91.9886 55.8045 100.053C56.857 100.422 57.975 100.567 59.087 100.48C60.199 100.393 61.2806 100.075 62.2625 99.5468C63.2444 99.0186 64.1052 98.2916 64.7896 97.4125C65.4741 96.5333 65.9672 95.5212 66.2376 94.441L69.1184 83.1869L61.7963 82.9915L58.7661 86.2789L48.9615 79.3046L34.1003 74.6709Z" fill="#0C3656"/>
<path d="M298.493 192.921C299.736 193.002 300.899 193.565 301.733 194.488C302.567 195.412 303.008 196.624 302.96 197.867C302.947 198.119 302.912 198.37 302.857 198.617L316.974 207.495L309.169 210.941L296.96 201.982C295.952 201.674 295.075 201.043 294.465 200.186C293.855 199.329 293.547 198.294 293.588 197.243C293.617 196.646 293.763 196.06 294.019 195.518C294.275 194.977 294.636 194.492 295.079 194.09C295.523 193.688 296.042 193.377 296.607 193.175C297.171 192.973 297.769 192.884 298.368 192.913C298.41 192.915 298.451 192.918 298.493 192.921Z" fill="#FFB6B6"/>
<path d="M312.107 203.46L308.608 210.666L322.442 219.553C323.426 220.19 324.558 220.566 325.729 220.645C326.9 220.723 328.071 220.501 329.132 220C330.421 219.384 331.475 218.366 332.135 217.1C332.795 215.833 333.024 214.387 332.789 212.979L328.3 187.398C327.999 185.607 327.021 184.001 325.57 182.908C324.118 181.815 322.301 181.318 320.494 181.521C318.717 181.715 317.089 182.606 315.969 183.998C314.85 185.39 314.33 187.169 314.524 188.944C314.532 189.013 314.541 189.082 314.55 189.151C314.584 189.397 314.632 189.641 314.692 189.882L319.592 208.075L312.107 203.46Z" fill="#267EB4"/>
<path d="M299.533 206.381L294.324 192.963C294.146 192.504 294.158 191.993 294.357 191.542C294.556 191.092 294.927 190.739 295.386 190.56L298.316 189.427C298.776 189.249 299.288 189.261 299.739 189.46C300.19 189.659 300.544 190.029 300.723 190.487L305.932 203.906C306.11 204.365 306.098 204.876 305.899 205.327C305.7 205.777 305.33 206.13 304.87 206.309L301.94 207.442C301.48 207.619 300.969 207.607 300.517 207.409C300.066 207.21 299.712 206.84 299.533 206.381Z" fill="#0C3656"/>
<path d="M295.995 191.112C295.747 191.208 295.548 191.399 295.44 191.641C295.333 191.884 295.327 192.159 295.422 192.407L300.632 205.825C300.728 206.073 300.919 206.272 301.162 206.379C301.405 206.486 301.681 206.492 301.929 206.397L304.859 205.263C305.106 205.167 305.306 204.977 305.413 204.734C305.521 204.491 305.527 204.216 305.431 203.969L300.222 190.55C300.125 190.303 299.935 190.104 299.692 189.997C299.448 189.89 299.173 189.883 298.925 189.979L295.995 191.112Z" fill="#267EB4"/>
<path d="M311.124 234.381H330.908V214.631H311.124V234.381Z" fill="#FFB8B8"/>
<path d="M264.205 272.794L256.649 270.257L252.442 290.787L257.561 292.507L264.205 272.794Z" fill="#FFB6B6"/>
<path d="M277.605 268.888L269.847 270.72L277.143 290.369L282.4 289.128L277.605 268.888Z" fill="#FFB6B6"/>
<path d="M330.198 239.54C334.164 265.929 281.357 250.327 281.357 250.327L264.8 273.127L255.107 271.368C255.107 271.368 259.469 257.681 267.258 239.332C270.717 231.183 309.996 233.175 309.996 233.175L310.812 226.785L333.282 226.345L330.198 239.54Z" fill="#125486"/>
<path d="M279.69 244.666L265.309 244.996C267.614 264.791 269.647 272.687 269.647 272.687L278.018 270.049L279.69 244.666Z" fill="#125486"/>
<path d="M318.896 182.539L322.878 177.429L328.559 177.183L329.126 181.989L331.94 183.284C334.751 193.943 335.185 205.087 333.212 215.931C332.835 216.285 332.559 216.734 332.413 217.23C332.268 217.727 332.257 218.253 332.384 218.754L332.566 219.481L332.549 219.507C331.95 220.45 331.747 221.591 331.983 222.683L333.328 225.067C333.81 225.924 334.099 226.876 334.176 227.857C334.252 228.837 334.114 229.823 333.77 230.744C333.427 231.666 332.886 232.502 332.186 233.194C331.486 233.885 330.644 234.417 329.717 234.751C321.455 237.741 313.709 238.854 307.979 230.465L306.177 201.23L318.896 182.539Z" fill="#267EB4"/>
<path d="M323.068 178.786C328.868 178.786 333.571 174.092 333.571 168.302C333.571 162.511 328.868 157.817 323.068 157.817C317.267 157.817 312.565 162.511 312.565 168.302C312.565 174.092 317.267 178.786 323.068 178.786Z" fill="#FFB8B8"/>
<path d="M328.34 155.663C332.787 155.748 336.314 159.866 336.218 164.86C339.509 168.288 338.421 172.482 335.671 176.968C330.641 177.55 329.467 177.793 325.055 179.589L324.474 176.878L323.157 180.409C322.036 180.925 320.923 181.491 319.819 182.108C319.026 178.474 319.222 174.943 321.355 171.867C323.25 169.134 318.639 165.89 315.342 166.348L315.39 163.839L314.562 166.334C313.276 167.276 311.854 166.935 310.396 166.254C308.032 153.987 326.337 150.633 328.34 155.663Z" fill="#125486"/>
<path d="M259.889 295.979L256.522 295.54L256.337 292.289L254.383 295.261L245.454 294.097C245.026 294.041 244.627 293.85 244.316 293.552C244.004 293.254 243.796 292.864 243.722 292.44C243.648 292.015 243.712 291.579 243.904 291.193C244.097 290.807 244.408 290.493 244.792 290.296L252.565 286.31L252.985 283.103L260.426 284.528L259.889 295.979Z" fill="#125486"/>
<path d="M284.332 294.129L280.964 294.561L279.954 291.465L278.824 294.836L269.893 295.983C269.465 296.038 269.031 295.955 268.653 295.746C268.276 295.537 267.975 295.213 267.795 294.822C267.615 294.43 267.565 293.991 267.653 293.57C267.74 293.148 267.961 292.765 268.282 292.477L274.78 286.644L274.366 283.436L281.925 282.919L284.332 294.129Z" fill="#125486"/>
<path d="M299.76 195.374C301.003 195.455 302.165 196.017 303 196.941C303.834 197.865 304.274 199.077 304.227 200.32C304.213 200.572 304.179 200.823 304.123 201.07L318.241 209.948L310.436 213.394L298.226 204.435C297.219 204.127 296.342 203.496 295.732 202.639C295.122 201.781 294.813 200.747 294.854 199.696C294.883 199.098 295.03 198.512 295.286 197.971C295.542 197.43 295.902 196.945 296.346 196.543C296.79 196.141 297.309 195.83 297.873 195.628C298.437 195.426 299.036 195.337 299.635 195.366C299.676 195.368 299.718 195.371 299.76 195.374Z" fill="#FFB6B6"/>
<path d="M313.373 205.913L309.875 213.119L323.709 222.005C324.693 222.643 325.824 223.019 326.995 223.097C328.166 223.176 329.338 222.954 330.398 222.453C331.688 221.837 332.742 220.819 333.402 219.552C334.061 218.286 334.291 216.84 334.055 215.432L329.566 189.851C329.265 188.06 328.288 186.454 326.836 185.36C325.384 184.267 323.568 183.771 321.761 183.974C320.881 184.07 320.028 184.338 319.252 184.763C318.475 185.188 317.79 185.762 317.236 186.451C316.682 187.14 316.269 187.932 316.021 188.78C315.773 189.629 315.695 190.518 315.791 191.397C315.799 191.466 315.807 191.535 315.817 191.604C315.851 191.85 315.898 192.094 315.958 192.335L320.859 210.528L313.373 205.913Z" fill="#267EB4"/>
<path d="M48.6489 204.523L53.0866 206.521L62.9199 190.386L56.3704 187.436L48.6489 204.523Z" fill="#F3B0BA"/>
<path d="M46.4041 209.073L60.0502 215.218L60.128 215.046C60.7635 213.64 60.8133 212.039 60.2667 210.597C59.72 209.154 58.6216 207.987 57.213 207.352L55.5733 204.342L50.0693 204.135L48.8781 203.599L46.4041 209.073Z" fill="#125486"/>
<path d="M103.611 182.58L108.298 181.266L105.453 162.594L98.5354 164.533L103.611 182.58Z" fill="#F3B0BA"/>
<path d="M104.818 187.507L119.232 183.468L119.18 183.286C118.763 181.801 117.771 180.542 116.424 179.787C115.076 179.031 113.484 178.841 111.996 179.258L108.802 178.002L104.45 181.372L103.192 181.725L104.818 187.507Z" fill="#125486"/>
<path d="M32.6741 128.021C32.794 131.482 40.1686 140.821 44.0472 142.16C44.7064 142.388 45.0917 142.513 45.0917 142.513L46.4416 142.106L62.7892 137.169C65.6517 138.849 74.1907 139.704 81.1972 140.131C86.7739 140.47 89.8823 143.381 89.8823 143.381C91.5275 155.871 96.2705 164.976 101.74 176.167L108.304 175.028L102.103 133.343C101.969 132.442 101.573 131.601 100.964 130.924C100.356 130.246 99.5608 129.762 98.6788 129.532L54.0703 117.884C54.0703 117.884 51.6102 117.44 46.4217 119.938C37.8797 124.052 32.5885 125.502 32.6741 128.021Z" fill="#125486"/>
<path d="M41.198 127.351C39.7019 130.476 41.9189 142.16 44.7387 145.136L45.4872 145.644L45.7403 145.776C47.4318 151.487 65.5836 168.192 65.5836 168.192C59.4523 175.989 53.9882 185.502 51.5501 196.159L58.6398 198.745L78.5965 169.005C79.1192 168.226 79.3935 167.308 79.3832 166.37C79.3729 165.433 79.0786 164.52 78.539 163.753L70.3974 152.176L57.1311 126.525C47.6516 126.233 42.2879 125.078 41.198 127.351Z" fill="#125486"/>
<path d="M32.9409 129.381C32.9189 129.381 32.3993 128.024 32.3887 128.021C32.212 127.971 29.8202 127.736 30.3581 123.783L31.0463 119.432L30.3744 115.591L29.2443 114.463L31.0606 112.65L29.9475 104.427L29.5201 87.9636C28.4476 82.3085 28.7277 77.1362 33.9235 74.6455L39.8803 69.1302L46.6586 69.0483L54.3486 73.5992L58.0744 81.0137L59.5195 101.108L60.5986 103.621L60.5061 103.705C60.499 103.711 59.7801 104.36 59.4572 104.717C59.3008 104.939 59.5942 106.595 59.9567 108.001L60.4214 111.472L59.2503 112.307L60.7729 114.103L64.9239 121.107L64.6752 121.045C64.3951 120.975 61.7846 124.887 33.1327 129.236C33.0005 129.256 32.9958 129.381 32.9409 129.381Z" fill="#0C3656"/>
<path d="M65.7492 85.8932L63.3773 84.6577C63.0052 84.4634 62.7255 84.1296 62.5995 83.7296C62.4736 83.3297 62.5118 82.8962 62.7057 82.5243L68.3846 71.6605C68.5793 71.289 68.9136 71.0098 69.3143 70.8841C69.715 70.7584 70.1492 70.7965 70.5218 70.9901L72.8937 72.2255C73.2659 72.4199 73.5456 72.7537 73.6715 73.1536C73.7974 73.5536 73.7592 73.9871 73.5653 74.359L67.8865 85.2228C67.6918 85.5943 67.3574 85.8735 66.9567 85.9992C66.556 86.1249 66.1218 86.0867 65.7492 85.8932Z" fill="#0C3656"/>
<path d="M69.9547 71.3996C69.7539 71.2953 69.5199 71.2747 69.304 71.3425C69.088 71.4102 68.9079 71.5606 68.8029 71.7608L63.1241 82.6246C63.0196 82.8251 62.999 83.0587 63.0669 83.2742C63.1347 83.4897 63.2855 83.6696 63.486 83.7743L65.8579 85.0098C66.0587 85.1141 66.2927 85.1346 66.5086 85.0669C66.7245 84.9992 66.9047 84.8487 67.0096 84.6485L72.6885 73.7847C72.793 73.5843 72.8135 73.3507 72.7457 73.1352C72.6778 72.9196 72.5271 72.7398 72.3266 72.635L69.9547 71.3996Z" fill="#267EB4"/>
<path d="M44.7968 67.5654C50.1492 67.5654 54.4882 63.2341 54.4882 57.8912C54.4882 52.5483 50.1492 48.217 44.7968 48.217C39.4444 48.217 35.1055 52.5483 35.1055 57.8912C35.1055 63.2341 39.4444 67.5654 44.7968 67.5654Z" fill="#F3B0BA"/>
<path d="M40.0304 64.1222C39.6055 63.7849 39.0754 63.6072 38.5327 63.6201C38.3644 63.6478 38.2038 63.7108 38.0616 63.805C37.9195 63.8992 37.799 64.0225 37.7082 64.1667C37.6577 64.2301 37.5922 64.2799 37.5175 64.3116C37.4429 64.3433 37.3615 64.3559 37.2808 64.3482C36.2467 64.3858 34.0426 62.4708 33.8918 58.7759C33.8202 57.0198 32.7677 54.0484 34.4433 52.439C34.5556 51.7895 35.864 45.0768 41.7618 44.8918C47.8 44.7002 51.8196 45.911 52.7851 48.2082C53.4557 50.0321 53.9655 51.9108 54.3087 53.8231L54.5112 54.9602L54.0381 53.9063C54.0292 53.8866 53.1663 51.9997 51.5661 51.3703C51.5401 51.6774 51.4619 51.9778 51.3348 52.2586C50.8126 53.3881 49.4964 54.1253 47.9815 54.1367C46.9347 54.1045 45.9025 53.8829 44.9349 53.4827C45.0445 53.6406 45.106 53.8266 45.112 54.0185C45.1181 54.2104 45.0684 54.4 44.969 54.5644C44.8695 54.7287 44.7246 54.8609 44.5516 54.9449C44.3787 55.0289 44.1851 55.0611 43.9942 55.0378L43.7141 55.003C43.6258 54.992 43.5365 55.0122 43.4616 55.0601C43.3867 55.108 43.3309 55.1805 43.304 55.2651C43.2771 55.3497 43.2807 55.4411 43.3141 55.5233C43.3476 55.6056 43.4089 55.6735 43.4873 55.7154L43.734 55.847L43.4347 55.9915C42.2298 56.5281 41.2371 57.448 40.6116 58.6076C39.9862 59.7671 39.7633 61.1009 39.9778 62.4003L40.3268 64.3598L40.0304 64.1222Z" fill="#125486"/>
<path d="M193.472 213.611C193.207 213.623 192.944 213.553 192.72 213.412C192.496 213.27 192.321 213.063 192.219 212.819C192.116 212.574 192.092 212.304 192.148 212.046C192.204 211.787 192.339 211.552 192.534 211.372L192.623 211.02C192.611 210.992 192.599 210.964 192.587 210.936C192.32 210.306 191.873 209.769 191.301 209.393C190.73 209.016 190.06 208.817 189.375 208.819C188.69 208.822 188.021 209.026 187.452 209.407C186.883 209.788 186.44 210.328 186.178 210.959C185.129 213.48 183.795 216.005 183.466 218.669C183.321 219.847 183.382 221.042 183.646 222.199C181.184 216.837 179.906 211.01 179.897 205.111C179.897 203.631 179.979 202.152 180.144 200.682C180.28 199.476 180.469 198.278 180.711 197.09C182.031 190.64 184.865 184.595 188.979 179.451C190.971 178.366 192.581 176.699 193.594 174.672C193.961 173.944 194.22 173.166 194.363 172.363C194.139 172.393 193.91 172.411 193.686 172.426C193.616 172.429 193.542 172.433 193.472 172.437L193.446 172.438C193.199 172.449 192.954 172.389 192.741 172.264C192.527 172.139 192.355 171.956 192.244 171.736C192.132 171.515 192.087 171.268 192.114 171.022C192.14 170.777 192.237 170.545 192.393 170.353C192.49 170.234 192.587 170.115 192.684 169.996C192.831 169.812 192.982 169.632 193.13 169.448C193.147 169.431 193.163 169.412 193.178 169.393C193.347 169.183 193.516 168.977 193.686 168.768C193.377 168.289 192.961 167.887 192.47 167.595C190.773 166.603 188.43 167.29 187.204 168.823C185.974 170.356 185.742 172.507 186.169 174.422C186.589 176.052 187.284 177.598 188.224 178.995C188.132 179.113 188.036 179.227 187.944 179.345C186.261 181.505 184.794 183.825 183.565 186.271C183.864 183.53 183.507 180.758 182.523 178.183C181.526 175.782 179.658 173.761 178.013 171.686C176.036 169.193 171.984 170.281 171.636 173.441C171.632 173.471 171.629 173.502 171.626 173.532C171.87 173.67 172.109 173.816 172.344 173.971C172.638 174.167 172.865 174.447 172.997 174.774C173.129 175.102 173.159 175.462 173.082 175.806C173.006 176.151 172.827 176.465 172.569 176.706C172.31 176.947 171.985 177.105 171.636 177.159L171.6 177.164C171.687 178.044 171.841 178.915 172.06 179.771C172.696 182.16 173.82 184.393 175.36 186.329C176.901 188.265 178.825 189.862 181.013 191.02C181.157 191.094 181.297 191.167 181.441 191.237C180.205 194.732 179.43 198.373 179.135 202.067C178.968 204.247 178.978 206.437 179.165 208.615L179.154 208.538C178.682 206.116 177.388 203.93 175.489 202.351C172.669 200.038 168.685 199.187 165.643 197.328C165.32 197.121 164.944 197.01 164.559 197.009C164.175 197.008 163.799 197.117 163.474 197.323C163.15 197.528 162.891 197.822 162.729 198.17C162.567 198.517 162.507 198.904 162.557 199.284C162.562 199.311 162.566 199.338 162.57 199.365C163.023 199.55 163.465 199.762 163.892 200.001C164.136 200.139 164.376 200.285 164.61 200.44C164.904 200.636 165.132 200.916 165.263 201.243C165.395 201.571 165.425 201.931 165.348 202.275C165.272 202.62 165.093 202.934 164.835 203.175C164.577 203.416 164.252 203.574 163.902 203.628L163.866 203.634C163.84 203.637 163.818 203.641 163.793 203.645C164.567 205.491 165.655 207.191 167.008 208.67C168.679 210.46 170.698 211.89 172.943 212.873C175.187 213.856 177.609 214.371 180.059 214.387H180.063C180.728 217.272 181.692 220.081 182.939 222.768H193.214C193.251 222.654 193.284 222.537 193.318 222.423C192.366 222.483 191.412 222.426 190.474 222.254C191.237 221.32 191.999 220.379 192.761 219.445C192.778 219.428 192.794 219.409 192.809 219.39C193.196 218.912 193.586 218.438 193.973 217.96L193.973 217.959C193.994 216.494 193.825 215.033 193.472 213.611Z" fill="#E6E6E6"/>
<path d="M242.862 54.567C243.061 54.743 243.2 54.9755 243.261 55.2332C243.323 55.4908 243.303 55.7611 243.206 56.0074C243.108 56.2536 242.937 56.464 242.716 56.6101C242.495 56.7561 242.234 56.8306 241.968 56.8237L241.659 57.0139C241.648 57.0422 241.636 57.0705 241.625 57.0989C241.376 57.7358 241.321 58.4319 241.467 59.0998C241.613 59.7677 241.954 60.3776 242.446 60.8529C242.938 61.3282 243.56 61.6478 244.234 61.7714C244.907 61.895 245.603 61.8172 246.232 61.5477C248.745 60.4732 251.466 59.5951 253.565 57.9156C254.492 57.1729 255.283 56.2752 255.903 55.2625C253.918 60.8177 250.759 65.8817 246.641 70.1113C245.606 71.1716 244.513 72.1733 243.367 73.1118C242.426 73.8804 241.453 74.606 240.449 75.2888C234.994 78.988 228.738 81.3428 222.195 82.16C220.011 81.5492 217.691 81.6216 215.549 82.3674C214.777 82.6335 214.047 83.0098 213.383 83.4845C213.565 83.6199 213.741 83.7658 213.912 83.9118C213.965 83.958 214.02 84.0066 214.073 84.0528L214.093 84.0703C214.277 84.2344 214.41 84.4482 214.476 84.6861C214.542 84.924 214.537 85.1757 214.463 85.4109C214.388 85.6462 214.247 85.855 214.057 86.0122C213.866 86.1694 213.635 86.2683 213.389 86.297C213.236 86.3147 213.084 86.3324 212.931 86.35C212.697 86.379 212.463 86.4027 212.229 86.4318C212.204 86.4324 212.18 86.4345 212.156 86.4379C211.888 86.4699 211.623 86.4994 211.355 86.5314C211.241 87.0899 211.259 87.6671 211.405 88.2179C211.927 90.1116 214.085 91.2512 216.035 91.0079C217.988 90.7671 219.658 89.3885 220.691 87.7193C221.53 86.2595 222.113 84.6678 222.417 83.0125C222.565 82.9924 222.713 82.9775 222.862 82.9574C225.577 82.5829 228.25 81.9436 230.841 81.0488C228.711 82.8028 227.028 85.0365 225.932 87.5663C224.967 89.9798 224.892 92.7293 224.619 95.3617C224.291 98.5236 227.954 100.568 230.413 98.5479C230.437 98.5284 230.46 98.5088 230.484 98.4891C230.405 98.2203 230.336 97.949 230.276 97.6753C230.203 97.33 230.236 96.9706 230.37 96.6442C230.505 96.3177 230.735 96.0396 231.031 95.846C231.327 95.6525 231.674 95.5527 232.028 95.5596C232.381 95.5666 232.725 95.68 233.013 95.885L233.042 95.906C233.594 95.2157 234.093 94.4845 234.535 93.7187C235.75 91.5646 236.507 89.183 236.757 86.7234C237.007 84.2637 236.746 81.779 235.989 79.4249C235.938 79.2722 235.889 79.1221 235.835 78.9719C239.163 77.3298 242.264 75.2626 245.058 72.8223C246.702 71.3777 248.226 69.8028 249.615 68.113L249.569 68.176C248.213 70.2389 247.612 72.7057 247.867 75.1598C248.27 78.7805 250.527 82.1661 251.407 85.6168C251.493 85.9904 251.685 86.3316 251.96 86.5999C252.234 86.8683 252.58 87.0527 252.956 87.1314C253.332 87.2101 253.723 87.1798 254.082 87.0441C254.441 86.9084 254.754 86.6729 254.984 86.3655C255 86.3433 255.016 86.321 255.032 86.2987C254.836 85.8507 254.668 85.3909 254.53 84.9221C254.451 84.6533 254.382 84.382 254.322 84.1083C254.249 83.763 254.281 83.4036 254.416 83.0772C254.551 82.7507 254.781 82.4726 255.077 82.279C255.373 82.0855 255.72 81.9857 256.074 81.9926C256.427 81.9996 256.77 82.113 257.058 82.318L257.088 82.339C257.109 82.3543 257.127 82.3671 257.148 82.3824C257.885 80.5199 258.294 78.5447 258.36 76.5435C258.414 74.0976 257.968 71.6663 257.048 69.3986C256.128 67.131 254.754 65.0748 253.01 63.3561L253.007 63.3536C254.549 60.8234 255.822 58.1401 256.808 55.3471L249.45 48.1882C249.344 48.2442 249.238 48.3053 249.134 48.3639C249.857 48.9837 250.501 49.6897 251.052 50.4658C249.853 50.6034 248.649 50.7462 247.45 50.8838C247.426 50.8844 247.402 50.8865 247.378 50.8899C246.767 50.9627 246.155 51.0304 245.544 51.1032L245.544 51.1035C244.505 52.1382 243.604 53.3025 242.862 54.567Z" fill="#E6E6E6"/>
<path d="M65.7212 83.2768L56.4556 93.7852L61.7173 98.8457C61.7173 98.8457 69.3488 86.3452 69.6026 85.8619C70.3038 85.762 70.9581 85.452 71.479 84.9728C71.9999 84.4936 72.3628 83.8679 72.5197 83.1784C72.6766 82.4888 72.6201 81.768 72.3576 81.1112C72.0952 80.4545 71.6392 79.8927 71.05 79.5003C70.4607 79.1078 69.766 78.9032 69.0578 78.9135C68.3495 78.9237 67.661 79.1484 67.0834 79.5577C66.5059 79.967 66.0664 80.5417 65.8231 81.2058C65.5799 81.8699 65.5443 82.5921 65.7212 83.2768Z" fill="#F3B0BA"/>
<path d="M33.3557 76.9014C33.5465 87.8698 41.8864 96.8983 48.2064 106.8C49.1371 107.413 50.1859 107.826 51.2856 108.012C52.3854 108.198 53.5119 108.153 54.5932 107.88C55.6745 107.607 56.6868 107.111 57.5653 106.425C58.4438 105.739 59.1693 104.877 59.6953 103.896L65.2376 93.682L58.1841 91.7107L54.4425 94.1615L46.6369 85.0117L33.3557 76.9014Z" fill="#0C3656"/>
</g>
<defs>
<clipPath id="clip0_3173_1364">
<rect width="382" height="296" fill="white"/>
</clipPath>
</defs>
</svg>
