<svg width="261" height="198" viewBox="0 0 261 198" fill="none" xmlns="http://www.w3.org/2000/svg">
<g id="Vector" filter="url(#filter0_d_661_83)">
<path d="M186.9 91.4545C185.205 91.4667 183.526 91.7862 181.944 92.3976L165.038 78.4782C165.454 76.9607 165.75 75.3865 165.75 73.7273C165.75 63.8993 157.896 56 148.125 56C138.354 56 130.5 63.8993 130.5 73.7273C130.5 76.5353 131.205 79.1518 132.347 81.506L111.839 105.885C111.018 105.73 110.185 105.647 109.35 105.636C108.088 105.636 106.897 105.849 105.74 106.161L87.6713 87.9871C87.9885 86.8313 88.2 85.6329 88.2 84.3636C88.2 76.5069 81.9114 70.1818 74.1 70.1818C66.2886 70.1818 60 76.5069 60 84.3636C60 92.2204 66.2886 98.5455 74.1 98.5455C75.362 98.5455 76.5534 98.3327 77.7096 98.0207L95.7788 116.195C95.4399 117.373 95.262 118.592 95.25 119.818C95.25 127.675 101.539 134 109.35 134C117.161 134 123.45 127.675 123.45 119.818C123.45 118.138 123.112 116.556 122.583 115.06L143.119 90.6533C144.72 91.1213 146.377 91.4545 148.125 91.4545C150.907 91.4391 153.646 90.756 156.113 89.462L173.026 103.381C172.893 104.126 172.818 104.88 172.8 105.636C172.8 113.493 179.089 119.818 186.9 119.818C194.711 119.818 201 113.493 201 105.636C201 97.7796 194.711 91.4545 186.9 91.4545Z" fill="#3B96D1"/>
</g>
<defs>
<filter id="filter0_d_661_83" x="0" y="0" width="261" height="198" filterUnits="userSpaceOnUse" color-interpolation-filters="sRGB">
<feFlood flood-opacity="0" result="BackgroundImageFix"/>
<feColorMatrix in="SourceAlpha" type="matrix" values="0 0 0 0 0 0 0 0 0 0 0 0 0 0 0 0 0 0 127 0" result="hardAlpha"/>
<feOffset dy="4"/>
<feGaussianBlur stdDeviation="30"/>
<feComposite in2="hardAlpha" operator="out"/>
<feColorMatrix type="matrix" values="0 0 0 0 0.231373 0 0 0 0 0.588235 0 0 0 0 0.819608 0 0 0 1 0"/>
<feBlend mode="normal" in2="BackgroundImageFix" result="effect1_dropShadow_661_83"/>
<feBlend mode="normal" in="SourceGraphic" in2="effect1_dropShadow_661_83" result="shape"/>
</filter>
</defs>
</svg>
