<svg width="259" height="248" viewBox="0 0 259 248" fill="none" xmlns="http://www.w3.org/2000/svg">
<g id="Vector" filter="url(#filter0_d_661_129)">
<path d="M97.3578 153.205L106.045 142.359L78.0794 120.007L106.045 97.6552L97.3578 86.8092L62.6094 114.584C61.7952 115.234 61.1379 116.06 60.6862 116.998C60.2345 117.937 60 118.965 60 120.007C60 121.049 60.2345 122.077 60.6862 123.016C61.1379 123.954 61.7952 124.779 62.6094 125.43L97.3578 153.205ZM161.642 86.8092L152.955 97.6552L180.921 120.007L152.955 142.359L161.642 153.205L196.391 125.43C197.205 124.779 197.862 123.954 198.314 123.016C198.765 122.077 199 121.049 199 120.007C199 118.965 198.765 117.937 198.314 116.998C197.862 116.06 197.205 115.234 196.391 114.584L161.642 86.8092ZM150.182 59.0136L122.384 184L108.811 180.986L136.61 56L150.182 59.0136Z" fill="#3B96D1"/>
</g>
<defs>
<filter id="filter0_d_661_129" x="0" y="0" width="259" height="248" filterUnits="userSpaceOnUse" color-interpolation-filters="sRGB">
<feFlood flood-opacity="0" result="BackgroundImageFix"/>
<feColorMatrix in="SourceAlpha" type="matrix" values="0 0 0 0 0 0 0 0 0 0 0 0 0 0 0 0 0 0 127 0" result="hardAlpha"/>
<feOffset dy="4"/>
<feGaussianBlur stdDeviation="30"/>
<feComposite in2="hardAlpha" operator="out"/>
<feColorMatrix type="matrix" values="0 0 0 0 0.231373 0 0 0 0 0.588235 0 0 0 0 0.819608 0 0 0 1 0"/>
<feBlend mode="normal" in2="BackgroundImageFix" result="effect1_dropShadow_661_129"/>
<feBlend mode="normal" in="SourceGraphic" in2="effect1_dropShadow_661_129" result="shape"/>
</filter>
</defs>
</svg>
