<svg width="898" height="442" viewBox="0 0 898 442" fill="none" xmlns="http://www.w3.org/2000/svg">
<path fill-rule="evenodd" clip-rule="evenodd" d="M523.228 150.483V153.828C519.024 151.947 516.474 148.936 513.12 146.008C508.916 142.37 503.295 138.146 496.304 137.185L470.843 137.268C474.764 142.036 518.505 181.052 523.228 183.645V186.865C519.024 184.9 481.283 151.027 474.433 145.13C468.34 139.861 469.946 137.185 459.082 137.101C402.965 136.683 428.142 140.237 404.571 124.054L404.902 158.01C437.684 159.809 435.7 152.072 452.232 168.841C489.643 206.854 483.597 176.41 483.267 246.624C483.219 252.311 482.227 254.444 485.817 258.04C494.65 266.822 501.169 264.229 523.228 263.769V266.195C478.354 266.069 496.965 267.659 483.125 260.089L483.03 270.209C486.715 269.791 488.462 269.122 491.769 270.293C501.641 273.68 496.634 284.679 496.351 287.021C505.467 291.244 507.782 289.781 523.228 289.53V294.13L506.034 294.548C509.152 297.433 511.23 299.022 514.584 301.824C517.985 304.584 519.969 307.052 523.228 309.561V312.655C519.308 310.146 511.23 303.121 507.829 299.524C500.177 291.37 497.91 294.506 482.889 294.046L483.692 302.242L501.783 302.159C504.05 305.755 504.003 305.17 506.932 307.553L511.797 312.53C513.545 314.328 515.104 315.541 517.088 317.13L523.228 321.563V324.615C507.877 316.586 507.924 301.113 483.55 305.546C485.534 310.481 488.415 310.146 491.958 313.533C495.028 316.503 496.02 318.134 499.563 321.312C501.547 323.068 502.303 323.737 504.381 325.41L508.443 328.839C511.892 330.93 518.41 329.885 523.228 329.926V341.134L519.449 341.426C518.08 350.041 517.513 349.623 510.144 352.843C510.38 364.301 510.191 375.759 510.238 387.218C510.286 398.76 508.349 396.752 523.228 408.712V412.058C518.694 409.842 516.048 406.412 512.222 403.151C506.318 398.132 507.168 398.843 507.31 389.309C507.499 377.056 507.31 364.678 507.31 352.467C500.319 351.421 497.437 348.536 496.587 341.594C485.203 340.548 487.943 341.343 481.566 335.195L460.404 316.712C456.625 314.37 447.792 315.332 441.982 315.29C440.943 326.163 440.471 325.535 446.942 331.725C449.256 333.941 457.712 340.799 458.42 341.886C473.866 335.363 483.267 346.528 475.661 355.394C469.426 362.67 451.193 359.367 457.05 344.437C453.13 341.635 448.076 336.743 444.108 333.23C436.644 326.664 439.29 326.121 438.534 315.541C411.94 313.408 426.064 319.514 413.404 317.799C408.964 311.233 416.664 316.293 404.949 305.839L383.929 287.271C381.52 285.055 376.843 279.368 373.442 279.41C370.608 297.141 375.096 294.464 386.054 306.048C387.188 307.219 388.227 308.139 389.597 309.143L421.482 337.245C431.259 334.777 441.226 335.572 444.06 344.981C447.414 355.937 438.628 358.865 431.921 362.378V376.387C436.172 378.603 445.855 388.054 449.587 391.441C471.788 411.682 466.828 409.591 481.188 409.925C487.093 410.051 492.761 410.092 498.713 410.092C518.835 410.009 512.081 410.218 523.228 418.749V425.189C510.663 418.582 520.678 414.567 497.532 414.609C481.613 414.651 469.993 417.034 463.852 410.887C458.184 405.2 432.818 382.074 426.583 378.812L426.536 362.419C424.457 361.039 408.255 357.359 417.514 340.674L372.97 301.197V326.204C379.347 331.557 385.724 329.09 380.622 343.81L441.982 398.132C452.374 406.622 462.152 416.156 472.26 425.105C475.803 428.242 484.022 436.898 488.368 437.944C502.255 441.164 511.136 427.991 509.483 442H486.715C483.55 438.989 482.605 442.042 476.984 439.742L415.105 385.754C412.979 383.914 411.893 382.074 409.389 380.569C400.036 375.049 377.93 378.269 365.601 377.516C362.531 375.55 360.405 373.459 357.854 371.159L357.76 400.641C381.189 402.983 396.777 396.878 404.477 404.447C407.5 407.416 409.342 409.131 412.601 411.765C418.836 416.867 423.796 421.133 429.748 426.527C434.424 430.667 442.596 436.982 446.092 442H438.581C436.219 438.571 427.858 431.838 424.08 428.451L401.879 408.754C398.808 405.911 398.619 405.492 392.573 405.451C383.031 405.409 373.395 405.534 363.853 405.618C366.31 408.796 371.317 412.351 374.623 415.403C378.591 419 381.567 421.927 385.535 425.398C413.026 449.276 400.603 437.484 410.57 442H376.607C372.309 435.351 353.792 423.516 352.753 417.202C351.147 406.956 355.02 406.831 339.385 393.909L299.518 358.865C297.156 356.983 295.739 355.436 293.188 353.136C288.842 349.33 283.363 343.81 279.112 342.012C278.734 351.17 277.081 352.843 283.08 357.903L304.383 376.261C307.028 378.519 307.312 379.774 309.674 380.819C315.153 383.203 311.988 379.23 317.94 383.078C321.058 388.472 317.279 386.758 316.381 391.609C316.098 393.281 316.05 401.561 316.05 403.778C316.05 409.172 320.491 411.849 326.868 417.369C331.402 421.342 351.95 438.571 353.65 442H350.344C348.36 438.153 322.049 416.951 316.334 411.598C314.161 440.327 318.507 440.118 319.593 442H315.72C311.61 436.062 313.452 427.322 313.452 420.296C313.452 407.834 314.539 409.507 306.839 403.067C291.157 390.02 268.72 367.814 255.588 357.443L241.842 352.048L210.147 352.007C212.273 355.185 227.341 367.312 229.278 369.319C231.97 372.038 230.931 371.201 234.001 373.543C236.599 375.467 236.316 375.509 238.441 377.767C245.432 385.378 244.96 379.481 250.345 383.872C253.557 390.981 247.794 386.674 247.369 394.41L247.511 437.86C252.801 440.662 251.337 437.902 253.888 442H237.969C240.945 437.902 240.662 440.076 244.346 437.86L244.393 393.491C244.252 391.4 241.37 384.249 239.953 382.618C237.119 379.272 210.383 358.447 206.037 351.923C181.05 351.547 189.269 355.185 170.563 338.666C162.013 331.139 153.464 323.821 145.433 316.335C145.717 341.176 145.292 366.434 145.245 391.358C145.245 412.1 142.41 414.483 152.094 422.178C155.967 425.273 171.555 438.487 173.681 442H169.855C159.463 427.322 142.41 424.478 142.505 411.054L142.552 321.019C142.599 312.446 140.993 312.404 136.128 308.181C130.649 303.455 109.723 282.63 105.991 282.922C99.3782 283.466 94.6073 284.846 91.0646 279.702C83.8375 269.248 98.6697 259.169 108.259 266.613C113.88 271.004 111.046 275.562 109.534 280.748L142.363 308.892C142.221 304.041 142.647 298.813 142.41 294.088C142.032 286.351 140.19 291.202 139.104 284.093C138.726 281.5 140.568 283.34 137.451 280.162L62.6285 214.047C39.8134 193.891 46.6154 194.852 22.336 195.48C18.7461 199.327 17.9903 203.216 9.53502 202.463C3.25261 201.92 -0.431813 198.198 0.0405487 191.883C0.654619 183.018 18.8878 176.243 22.3833 192.678C36.2234 192.176 41.7028 191.34 47.3712 196.567L132.444 272.175C146.803 284.93 140.379 278.28 147.89 283.048C148.787 290.031 145.292 286.017 145.245 295.133C145.197 316.377 143.166 310.523 161.116 326.372C167.02 331.557 172.311 335.99 178.263 341.176C187.568 349.288 183.695 349.665 201.881 349.288C190.827 336.952 181.002 335.07 180.577 325.284C180.199 316.461 182.419 288.108 179.302 284.344L163.619 270.586C146.284 275.144 140.568 262.055 148.74 255.197C157.479 247.878 171.413 254.151 165.698 268.328C169.004 272.551 173.539 275.771 177.271 278.991C183.836 284.679 183.6 283.34 183.459 294.171C183.364 301.072 183.459 307.972 183.459 314.83C183.459 324.114 181.664 327.71 186.387 331.892C210.997 353.805 201.267 349.121 234.852 349.372C252.14 349.497 246.755 343.643 252.66 347.616C256.816 351.588 251.054 351.128 258.659 356.816L297.298 390.814C301.785 394.745 307.831 401.101 313.075 404.238C313.311 400.056 314.255 394.62 312.508 390.856C306.178 377.181 288.559 368.232 278.262 356.983C272.357 350.501 279.49 342.556 273.538 336.408C266.783 329.466 253.321 319.263 247.7 313.868C237.591 304.082 251.384 272.969 240.378 263.477C233.104 257.204 157.762 188.287 152.802 187.451C144.914 186.112 131.688 188.412 123.847 187.2C118.887 186.405 111.66 178.418 108.684 175.658C100.701 178.209 95.4104 180.3 88.5139 174.612C83.6013 170.514 81.6646 162.527 86.6244 156.798C95.3631 146.677 118.084 151.696 112.037 172.187C114.824 174.78 116.997 176.536 119.737 178.961C122.949 181.763 123.044 182.6 129.657 182.725C136.175 182.851 153.464 181.22 157.998 183.352C162.627 185.569 236.174 253.9 244.157 259.128C244.629 249.342 244.393 238.846 244.44 228.976C244.44 220.571 241.701 219.86 231.687 211.12L198.574 181.721C190.119 183.185 185.584 185.82 178.688 179.547C172.689 174.152 173.067 166.541 178.215 161.314C184.876 154.498 208.966 153.41 202.07 178.418C215.768 191.507 230.647 203.174 244.724 216.18C250.345 221.407 249.778 220.738 249.636 230.064C249.542 236.295 249.825 242.484 249.825 248.673C249.731 263.937 246.897 271.84 268.059 269.039C266.972 259.964 267.822 244.909 267.917 235.249C268.011 226.467 269.57 226.3 264.232 221.658C260.784 218.689 258.233 216.473 254.832 213.42C223.184 184.691 226.585 195.229 223.987 173.232C216.76 169.343 214.871 169.259 215.39 160.185C215.626 155.167 215.626 156.965 211.564 153.578L182.041 126.939C167.493 128.445 165.981 127.065 167.54 113.808C173.917 111.048 175.712 111.174 183.128 112.47C184.498 117.99 186.623 118.199 183.6 124.639L200.653 140.405C205.801 144.712 213.501 152.281 218.461 155.208C223.845 152.95 230.506 151.696 234.521 155.961C239.15 160.938 236.174 164.994 235.229 169.887L239.339 174.403C249.353 173.901 256.344 171.141 255.683 184.231C255.399 189.5 263.713 194.267 267.633 197.362C267.87 192.343 268.909 182.223 266.594 177.958C261.823 169.092 268.011 172.772 262.201 167.587L184.451 98.9625C169.477 85.3715 171.083 82.8206 151.81 83.866C145.575 84.2006 149.26 82.8206 142.316 90.8915C137.451 90.8079 132.018 92.0206 128.428 88.5915C125.642 85.8733 124.413 80.6042 126.87 76.7569C130.696 70.8186 143.875 67.2641 148.173 81.2733C157.668 81.7751 166.406 79.2242 172.972 85.3715C195.882 106.992 220.303 127.65 244.063 148.518L265.035 167.169C269.854 171.141 269.854 167.879 273.491 172.187C274.294 178.501 270.609 175.783 270.751 185.611C270.94 201.962 270.042 197.487 279.254 208.276C283.032 212.793 287.803 215.929 292.102 219.693C306.084 231.945 308.068 239.807 327.765 237.926C324.836 236.42 322.947 233.953 320.632 231.653C313.736 224.795 312.744 230.816 307.028 218.94C304.855 214.382 306.273 193.305 306.273 187.701C306.367 172.187 306.839 175.24 288.512 159.85C283.032 160.77 279.679 162.109 274.577 158.847C260.501 149.856 279.49 132.083 291.063 145.256C295.361 150.148 291.535 153.41 291.771 156.756C291.96 159.139 296.495 162.109 298.809 164.158C320.302 183.018 316.523 179.212 316.334 209.447C316.239 219.818 318.601 225.213 324.742 231.109C333.859 239.891 333.906 238.344 350.391 238.218C355.162 238.176 362.389 238.553 366.782 238.135C374.529 237.424 369.333 234.455 379.064 235.835C382.039 243.027 377.457 239.682 384.307 245.537L423.466 280.12C426.819 283.006 436.55 291.035 438.534 293.67C439.62 283.09 438.865 278.03 430.079 271.213C427.622 269.331 426.961 268.328 424.835 266.488C420.537 262.808 400.178 270.753 407.311 248.673C399.611 243.069 401.69 244.491 401.548 233.116C401.501 224.836 398.43 224.753 393.754 220.654C371.081 200.874 369.805 206.52 369.9 182.558C369.994 159.934 372.781 158.47 363.05 149.605L307.123 99.8825C270.042 65.1731 286.811 79.3914 245.432 75.6696C241.984 71.0277 238.394 67.515 233.671 64.5877C213.784 72.3241 203.109 55.8058 212.745 45.1421C221.767 35.1056 245.149 42.8002 237.591 60.5731C239.859 63.124 242.22 64.7131 244.866 67.1804C247.558 69.7314 248.219 71.195 253.463 71.4041C259.367 71.6132 278.545 70.4423 282.466 71.7387C286.811 73.2023 334.52 116.861 341.369 123.343L369.852 148.308C369.852 138.356 369.9 128.361 369.947 118.408C369.994 111.383 370.419 112.052 365.979 107.828C360.075 102.266 328.426 75.7532 325.025 70.6932C314.303 71.655 309.957 74.7496 303.155 67.2223C298.526 62.0786 299.707 53.4221 304.052 49.4912C314.208 40.4166 336.551 49.3239 327.576 66.7623C332.914 72.7005 343.353 81.3569 349.919 86.8351C353.887 90.1388 357.051 93.2334 360.972 96.6625C364.751 100.008 368.766 103.019 372.167 106.406C376.654 110.797 375.048 116.024 375.048 123.635C375.237 155.334 369.191 159.892 401.123 157.927C402.398 150.358 401.501 137.979 401.548 129.783C401.595 123.301 402.587 121.963 398.572 118.199C395.927 115.732 393.707 113.766 391.014 111.424C380.103 102.057 370.372 93.0243 359.461 83.5733C350.675 76.0042 349.872 77.7187 349.73 62.6222C349.683 56.6422 350.816 54.1749 347.132 51.0385C340.708 45.5184 334.142 38.5347 327.198 33.5165L319.877 26.5746C318.412 25.4455 318.601 25.7383 317.279 24.7764L308.351 15.9109C301.643 16.4545 296.117 17.5 293.235 12.9C287.945 4.36899 299.848 -4.03654 307.926 2.11079C312.744 5.79082 310.571 9.47085 309.532 14.0291C318.696 21.8491 327.057 29.251 335.937 37.2384C353.084 52.6276 352.8 46.2294 352.659 68.9368C352.611 76.2969 358.705 79.3078 363.192 83.3224L401.312 116.986C402.209 105.528 404.099 99.4643 395.502 91.9788C390.636 87.7552 383.787 80.8133 378.449 77.2587C370.514 79.9351 360.547 77.4678 363.239 68.1004C365.554 60.2386 377.221 60.5313 380.528 66.135C384.921 73.495 375.804 70.4423 387.566 81.3987C399.564 92.6061 404.713 91.3934 404.618 102.893C404.429 120.332 401.737 117.07 415.152 129.365C422.946 136.474 420.915 134.592 435.652 134.55C444.627 134.55 453.791 134.257 462.672 134.676C459.601 130.619 454.547 127.357 450.626 123.803C448.831 122.13 446.186 119.035 444.438 117.948C439.715 115.063 440.423 118.366 436.125 114.603C434.235 108.288 437.211 111.424 438.581 106.783C439.337 104.232 438.817 99.5898 438.77 96.7461C438.77 89.8461 438.912 82.9042 438.912 76.0042C438.912 67.975 434.33 66.595 429.89 62.5804C404.76 39.9147 417.939 52.2512 402.634 48.4876C397.486 47.233 393.045 41.0438 396.635 34.4365C401.406 25.6546 424.363 27.9965 415.199 45.853L439.526 67.515C445.525 73.6623 439.337 97.4989 442.029 106.783C442.077 107.034 442.218 107.284 442.313 107.535C444.722 113.641 446.233 116.15 452.185 121.335C467.112 134.425 462.672 134.55 485.864 134.508C506.79 134.508 497.012 131.079 506.885 131.999C509.483 135.763 509.341 142.328 523.228 150.483ZM478.118 207.356V250.304L433.527 211.371C430.173 207.398 433.291 207.774 430.268 202.882C422.946 202.422 421.859 202.965 422.521 209.74C428.85 212.249 428.473 210.911 432.913 214.925C444.344 225.296 466.734 243.738 475.567 252.646C480.432 257.58 478.165 270.502 476.37 277.528C463.144 278.071 464.797 275.771 451.807 264.397C444.816 258.249 439.762 253.775 431.968 246.749C428.331 243.446 425.26 241.898 421.671 238.302C417.703 234.329 415.483 232.824 411.987 229.353C403.248 220.738 404.524 230.565 404.571 201.125L404.618 163.112C442.266 160.227 435.464 159.39 468.34 189.792C475.992 196.818 478.165 194.058 478.118 207.356ZM352.564 322.064L352.328 362.043L314.114 328.337C299.66 314.83 309.06 324.155 305.328 314.537C299.093 313.115 296.542 313.868 296.636 320.308C300.793 323.11 301.407 321.395 305.517 324.615L341.7 356.648C354.595 368.358 352.564 366.016 352.517 386.172V395.581L333.103 378.729C320.396 368.023 335.512 361.416 323.278 351.254L283.552 316.126C274.483 308.599 280.954 293.879 278.923 274.517C282.891 273.639 304.714 273.555 309.485 274.015C314.964 274.517 337.779 296.89 343.259 301.532C351.997 308.933 352.564 307.512 352.564 322.064ZM370.183 291.328L350.533 273.513C359.413 253.482 332.536 249.217 325.12 259.42C320.774 265.442 322.049 272.468 327.057 276.608C334.047 282.379 339.621 280.539 346.896 277.862C353.603 283.382 359.461 289.07 366.168 294.715C371.789 299.441 370.278 299.775 370.278 308.641C370.183 336.701 370.655 322.232 363.287 330.303C361.35 332.477 360.122 335.906 360.972 339.461C362.814 347.072 370.939 347.281 378.591 345.19C382.795 349.288 387.519 353.303 392.29 357.359L406.697 370.658C398.761 377.056 408.208 375.007 379.583 375.341C365.837 375.509 357.571 374.463 357.571 359.325V322.064C357.524 304.124 359.13 309.686 348.454 300.026C305.659 261.344 322.38 270.377 278.781 269.582V235.249C293.944 244.24 287 248.464 303.675 248.338C348.029 248.046 333.433 243.738 359.697 266.32C366.546 272.217 365.554 270 367.585 275.52C370.939 284.553 369.758 278.197 370.183 291.328ZM438.534 312.446C417.325 314.035 413.357 309.393 400.65 298.312L380.481 279.995C374.623 274.642 378.875 277.611 375.474 271.882C372.262 269.122 374.812 275.562 358.658 261.009C356.154 258.793 346.754 251.057 345.101 248.38C351.383 248.255 369.144 247.335 374.245 249.509C377.221 250.764 373.773 249.635 377.41 250.889C387.188 254.318 391.865 261.135 402.634 270.669L434.188 298.562C439.951 303.288 439.148 303.037 438.534 312.446ZM393.612 162.694L401.453 162.903L401.501 219.902C395.266 215.26 389.55 210.2 384.874 205.809C374.151 195.731 375.001 200.958 375.096 182.558L375.237 160.561C378.449 163.99 386.999 162.652 393.612 162.694ZM523.228 204.387V210.869C515.056 206.645 478.779 170.681 471.835 166.75C451.335 174.821 441.982 156.965 451.618 147.054C456.011 142.496 466.261 141.408 471.883 145.088C480.054 150.399 477.504 155.627 476.37 164.032C488.226 172.103 513.876 199.369 523.228 204.387ZM267.87 274.182L268.011 292.122C268.011 303.204 265.791 303.957 272.782 310.146C277.978 314.704 275.853 322.524 276.041 330.721L252.471 310.523C248.361 306.842 249.731 298.27 249.731 290.031L249.778 272.091C253.935 273.973 249.117 273.513 256.864 273.973C260.548 274.182 264.091 273.889 267.87 274.182ZM324.931 374.881L283.646 337.83C280.718 335.446 279.017 334.568 278.781 329.424C278.592 325.243 278.828 320.099 279.112 315.917L322.049 353.428C325.592 356.607 325.309 356.439 325.262 362.336C325.262 366.434 325.639 370.95 324.931 374.881ZM238.3 175.281C238.347 181.178 236.316 185.778 241.937 188.747C250.487 193.222 249.164 184.816 257.241 192.636C270.042 204.973 268.059 198.867 267.87 221.407L243.779 200.498C222.617 182.683 228.049 186.405 227.294 172.898L233.623 171.058C235.277 172.94 236.174 173.86 238.3 175.281ZM478.071 301.95C469.474 303.413 451.051 304.919 444.958 299.357C442.596 297.224 442.077 297.266 441.51 294.171C440.99 291.161 441.557 283.424 442.36 280.58C447.131 280.58 451.996 280.33 456.767 280.33C464.089 280.371 463.144 281.459 466.97 285.097C470.229 288.15 471.41 289.07 474.575 291.83C478.496 295.217 478.071 295.342 478.071 301.95ZM336.126 245.62C328.993 246.122 320.396 245.871 313.027 245.913C304.903 245.955 296.825 247.167 292.055 243.487C290.59 242.316 281.379 234.204 280.482 233.075C277.506 229.395 278.498 217.894 278.97 212.5C294.605 220.78 303.438 240.644 317.656 240.853C331.072 241.062 328.71 238.302 336.126 245.62ZM398.43 441.289C376.938 441.665 384.118 440.244 361.067 421.174C355.918 416.909 358.327 412.518 357.618 405.492C363.523 407.332 364.137 410.427 368.152 413.856C372.12 417.243 374.482 418.833 378.355 422.429C383.079 426.904 396.163 437.107 398.43 441.289ZM458.184 277.695L445.005 278.155L444.486 275.395C442.596 267.784 441.651 271.715 436.125 270C433.48 269.122 429.276 264.146 426.016 262.431C431.448 235.04 411.231 253.273 405.469 243.446C403.532 240.142 404.713 234.12 404.76 229.896C407.641 232.656 407.925 232.949 410.995 235.375L458.184 277.695ZM497.815 337.956C486.526 341.928 477.693 326.204 463.238 315.457C478.259 314.286 479.157 318.384 496.256 333.648C499.421 336.492 498.996 334.861 497.815 337.956ZM324.742 64.4204C319.924 61.1586 322.427 61.2422 320.727 54.7185C306.367 50.9548 305.281 62.7477 312.791 64.7968C317.893 66.1768 316.381 63.5004 320.585 67.4732C315.436 75.7951 294.889 63.8768 305.375 52.7112C313.452 44.0966 333.953 52.6276 324.742 64.4204ZM195.268 178.167C191.016 185.234 175.192 179.421 177.507 168.172C179.585 158.261 194.842 158.136 199.566 165.119C201.739 168.298 201.928 176.41 198.291 175.156C193.992 173.692 198.243 167.921 193.189 165.454C184.592 161.23 178.215 173.609 188.277 176.285C192.244 177.33 190.827 176.201 195.268 178.167ZM109.251 169.343C102.874 165.287 107.881 161.021 101.22 158.972C92.8124 156.379 90.1199 165.036 94.4656 168.632C101.268 172.312 101.22 166.876 105.661 173.232C105.424 173.4 105.047 173.4 104.905 173.734L102.449 175.072C97.536 176.703 93.0958 175.449 90.0254 172.229C86.4355 168.465 85.7742 162.694 89.7893 158.554C98.6697 149.396 114.116 156.296 109.251 169.343ZM473.961 160.687C468.671 157.968 470.277 154.916 469.048 150.65C464.986 149.396 463.852 149.061 458.845 150.525C457.476 153.118 455.87 156.756 458.562 159.432C464.939 163.99 464.892 157.425 469.521 164.952C454.216 170.347 446.092 156.547 453.697 148.852C460.877 141.576 478.685 147.305 473.961 160.687ZM234.946 58.0222C230.742 56.3076 232.679 53.924 230.222 50.1603C224.554 41.4202 210.95 53.8403 221.295 58.2313C227.105 60.6986 228.191 56.4331 231.309 62.7477C209.486 68.1423 209.911 52.0839 215.107 47.1075C222.995 39.622 238.394 43.1766 234.946 58.0222ZM347.463 271.046C349.494 272.76 346.66 270.46 346.66 270.419C343.589 267.031 344.817 265.526 343.117 261.428C339.527 260.508 334.85 260.131 332.536 263.059C329.418 267.031 332.016 268.035 333.481 271.757C339.338 272.928 342.172 271.339 344.156 275.98C331.119 282.462 319.971 268.662 328.332 260.089C337.732 250.387 355.304 263.811 347.463 271.046ZM458.987 346.612C465.222 350.459 459.507 352.676 468.245 353.847C471.316 351.588 471.694 350.25 470.843 346.654C465.411 345.106 465.553 347.03 461.207 344.939C463.758 339.712 469.474 340.966 472.544 343.099C475.614 345.274 477.315 350.668 474.339 354.265C470.324 359.074 455.208 358.112 458.987 346.612ZM162.438 265.986L161.116 258.751C156.345 258.249 150.771 258.751 153.086 263.853C154.928 267.993 157.479 265.359 161.069 268.328C151.196 274.266 143.497 262.055 150.252 256.493C153.18 254.068 158.565 253.649 162.344 255.991C164.47 257.329 165.131 258.835 165.367 261.386C165.839 266.948 162.438 265.986 162.438 265.986ZM106.227 278.615C105.283 275.562 107.03 272.886 103.299 271.004C98.6224 268.662 97.0164 272.259 96.4496 275.562C101.079 280.664 100.843 276.608 104.952 280.706C95.4104 285.18 87.7581 274.433 94.7018 268.244C103.063 260.884 115.627 274.015 106.227 278.615ZM413.924 44.1802C412.601 43.3439 412.837 44.3475 411.231 42.0057C409.578 39.622 411.184 41.3366 410.003 38.9529C408.539 35.9002 407.216 35.6911 402.871 35.9002C397.155 45.1839 407.216 41.7129 410.995 46.1039C400.556 49.0312 392.951 40.0402 400.462 33.5583C407.452 27.5783 417.986 33.8929 413.924 44.1802ZM145.386 81.5242C136.175 81.5242 142.41 79.4751 136.459 78.5133C131.357 77.6769 131.168 81.3987 132.396 85.246C133.955 85.9151 135.23 86.6679 137.592 86.3333C144.441 85.3715 135.656 84.9951 144.536 84.117C139.246 92.6479 127.011 89.5952 127.956 80.4369C128.806 72.575 143.308 69.7314 145.386 81.5242ZM19.5491 192.678C10.9521 192.803 17.6124 187.283 6.79532 190.545C6.03954 193.305 5.51994 196.734 9.86567 197.571C16.2898 198.742 12.322 194.267 18.9823 195.982C11.1883 204.345 0.607383 199.327 2.35512 190.922C4.00839 183.185 18.7461 181.972 19.5491 192.678ZM289.315 147.179L289.22 154.665C288.701 154.456 288.417 153.787 288.37 153.954L287.142 150.525C284.686 142.621 276.136 148.601 278.592 153.327C282.938 157.007 282.891 153.954 285.111 157.634C275.9 158.93 271.885 156.003 273.916 147.639C276.325 144.001 279.254 142.914 285.253 143.457L289.315 147.179Z" fill="#E6E7E8"/>
<path fill-rule="evenodd" clip-rule="evenodd" d="M722.328 150.483V153.828C718.124 151.947 715.574 148.936 712.22 146.008C708.016 142.37 702.395 138.146 695.404 137.185L669.944 137.268C673.864 142.036 717.605 181.052 722.328 183.645V186.865C718.124 184.9 680.383 151.027 673.533 145.13C667.44 139.861 669.046 137.185 658.182 137.101C602.065 136.683 627.242 140.237 603.671 124.054L604.002 158.01C636.784 159.809 634.8 152.072 651.332 168.841C688.743 206.854 682.697 176.41 682.367 246.624C682.319 252.311 681.327 254.444 684.917 258.04C693.751 266.822 700.269 264.229 722.328 263.769V266.195C677.454 266.069 696.065 267.659 682.225 260.089L682.13 270.209C685.815 269.791 687.563 269.122 690.869 270.293C700.742 273.68 695.734 284.679 695.451 287.021C704.568 291.244 706.882 289.781 722.328 289.53V294.13L705.134 294.548C708.205 297.433 710.33 299.022 713.684 301.824C717.085 304.584 719.069 307.052 722.328 309.561V312.655C718.408 310.146 710.33 303.121 706.929 299.524C699.277 291.37 697.01 294.506 681.989 294.046L682.792 302.242L700.883 302.159C703.151 305.755 703.103 305.17 706.032 307.553L710.897 312.53C712.645 314.328 714.204 315.541 716.188 317.13L722.328 321.563V324.615C706.977 316.586 707.024 301.113 682.603 305.546C684.634 310.481 687.515 310.146 691.058 313.533C694.128 316.503 695.073 318.134 698.663 321.312C700.647 323.068 701.403 323.737 703.481 325.41L707.544 328.839C710.992 330.93 717.51 329.885 722.328 329.926V341.134L718.55 341.426C717.18 350.041 716.613 349.623 709.244 352.843C709.48 364.301 709.291 375.759 709.338 387.218C709.386 398.76 707.449 396.752 722.328 408.712V412.058C717.794 409.842 715.149 406.412 711.275 403.151C705.418 398.132 706.268 398.843 706.41 389.309C706.599 377.056 706.41 364.678 706.41 352.467C699.419 351.421 696.537 348.536 695.687 341.594C684.303 340.548 687.043 341.343 680.666 335.195L659.504 316.712C655.725 314.37 646.892 315.332 641.082 315.29C640.043 326.163 639.571 325.535 646.042 331.725C648.357 333.941 656.812 340.799 657.52 341.886C672.967 335.363 682.367 346.528 674.762 355.394C668.526 362.67 650.293 359.367 656.151 344.437C652.23 341.635 647.176 336.743 643.208 333.23C635.745 326.664 638.39 326.121 637.634 315.541C611.04 313.408 625.164 319.514 612.504 317.799C608.064 311.233 615.764 316.293 604.049 305.839L583.029 287.271C580.62 285.055 575.944 279.368 572.543 279.41C569.708 297.141 574.196 294.464 585.155 306.048C586.288 307.219 587.327 308.139 588.65 309.143L620.582 337.245C630.36 334.777 640.326 335.572 643.161 344.981C646.514 355.937 637.728 358.865 631.021 362.378V376.387C635.272 378.603 644.956 388.054 648.687 391.441C670.888 411.682 665.928 409.591 680.288 409.925C686.193 410.051 691.861 410.092 697.813 410.092C717.935 410.009 711.181 410.218 722.328 418.749V425.189C709.764 418.582 719.778 414.567 696.632 414.609C680.713 414.651 669.093 417.034 662.953 410.887C657.284 405.2 631.918 382.074 625.683 378.812L625.589 362.419C623.558 361.039 607.356 357.359 616.614 340.674L572.07 301.197V326.204C578.447 331.557 584.824 329.09 579.722 343.81L641.082 398.132C651.474 406.622 661.252 416.156 671.361 425.105C674.903 428.242 683.122 436.898 687.468 437.944C701.356 441.164 710.236 427.991 708.583 442H685.815C682.65 438.989 681.705 442.042 676.084 439.742L614.205 385.754C612.079 383.914 610.993 382.074 608.489 380.569C599.089 375.049 577.03 378.269 564.701 377.516C561.631 375.55 559.505 373.459 556.955 371.159L556.86 400.641C580.289 402.983 595.877 396.878 603.577 404.447C606.6 407.416 608.442 409.131 611.701 411.765C617.936 416.867 622.896 421.133 628.848 426.527C633.524 430.667 641.696 436.982 645.192 442H637.681C635.319 438.571 626.959 431.838 623.18 428.451L600.979 408.754C597.908 405.911 597.719 405.492 591.673 405.451C582.132 405.409 572.495 405.534 562.954 405.618C565.41 408.796 570.417 412.351 573.723 415.403C577.691 419 580.667 421.927 584.635 425.398C612.126 449.276 599.703 437.484 609.67 442H575.707C571.409 435.351 552.845 423.516 551.853 417.202C550.247 406.956 554.12 406.831 538.438 393.909L498.618 358.865C496.256 356.983 494.839 355.436 492.288 353.136C487.943 349.33 482.463 343.81 478.212 342.012C477.834 351.17 476.181 352.843 482.18 357.903L503.483 376.261C506.128 378.519 506.412 379.774 508.774 380.819C514.253 383.203 511.088 379.23 517.04 383.078C520.158 388.472 516.332 386.758 515.481 391.609C515.198 393.281 515.151 401.561 515.151 403.778C515.151 409.172 519.591 411.849 525.968 417.369C530.502 421.342 551.05 438.571 552.751 442H549.444C547.46 438.153 521.15 416.951 515.434 411.598C513.261 440.327 517.607 440.118 518.693 442H514.82C510.71 436.062 512.553 427.322 512.553 420.296C512.505 407.834 513.639 409.507 505.94 403.067C490.21 390.02 467.82 367.814 454.688 357.443L440.943 352.048L409.247 352.007C411.326 355.185 426.441 367.312 428.378 369.319C431.023 372.038 430.031 371.201 433.101 373.543C435.652 375.467 435.416 375.509 437.494 377.767C444.533 385.378 444.06 379.481 449.445 383.872C452.657 390.981 446.894 386.674 446.469 394.41L446.611 437.86C451.854 440.662 450.437 437.902 452.988 442H437.069C440.045 437.902 439.762 440.076 443.446 437.86L443.493 393.491C443.352 391.4 440.423 384.249 439.053 382.618C436.219 379.272 409.483 358.447 405.138 351.923C380.15 351.547 388.369 355.185 369.663 338.666C361.113 331.139 352.564 323.821 344.534 316.335C344.817 341.176 344.392 366.434 344.345 391.358C344.345 412.1 341.51 414.483 351.194 422.178C355.067 425.273 370.655 438.487 372.781 442H368.955C358.563 427.322 341.51 424.478 341.605 411.054L341.652 321.019C341.699 312.446 340.093 312.404 335.228 308.181C329.749 303.455 308.776 282.63 305.091 282.922C298.478 283.466 293.707 284.846 290.165 279.702C282.938 269.248 297.77 259.169 307.359 266.613C312.98 271.004 310.146 275.562 308.634 280.748L341.463 308.892C341.322 304.041 341.747 298.813 341.51 294.088C341.133 286.351 339.29 291.202 338.204 284.093C337.826 281.5 339.668 283.34 336.551 280.162L261.729 214.047C238.913 193.891 245.716 194.852 221.436 195.48C217.846 199.327 217.09 203.216 208.635 202.463C202.353 201.92 198.668 198.198 199.141 191.883C199.755 183.018 217.988 176.243 221.483 192.678C235.276 192.176 240.803 191.34 246.471 196.567L331.544 272.175C345.903 284.93 339.479 278.28 346.99 283.048C347.887 290.031 344.392 286.017 344.345 295.133C344.297 316.377 342.266 310.523 360.216 326.372C366.12 331.557 371.411 335.99 377.363 341.176C386.668 349.288 382.795 349.665 400.981 349.288C389.928 336.952 380.102 335.07 379.677 325.284C379.299 316.461 381.519 288.108 378.402 284.344L362.719 270.586C345.384 275.144 339.668 262.055 347.84 255.197C356.579 247.878 370.513 254.151 364.798 268.328C368.104 272.551 372.639 275.771 376.371 278.991C382.889 284.679 382.7 283.34 382.559 294.171C382.464 301.072 382.559 307.972 382.559 314.83C382.559 324.114 380.764 327.71 385.487 331.892C410.097 353.805 400.367 349.121 433.952 349.372C451.24 349.497 445.855 343.643 451.76 347.616C455.916 351.588 450.154 351.128 457.759 356.816L496.398 390.814C500.885 394.745 506.932 401.101 512.175 404.238C512.411 400.056 513.356 394.62 511.608 390.856C505.278 377.181 487.659 368.232 477.362 356.983C471.457 350.501 478.59 342.556 472.638 336.408C465.883 329.466 452.421 319.263 446.8 313.868C436.691 304.082 450.484 272.969 439.478 263.477C432.204 257.204 356.862 188.287 351.902 187.451C344.014 186.112 330.788 188.412 322.947 187.2C317.987 186.405 310.76 178.418 307.784 175.658C299.801 178.209 294.51 180.3 287.614 174.612C282.701 170.514 280.765 162.527 285.725 156.798C294.463 146.677 317.184 151.696 311.138 172.187C313.925 174.78 316.097 176.536 318.837 178.961C322.049 181.763 322.144 182.6 328.757 182.725C335.275 182.851 352.564 181.22 357.098 183.352C361.728 185.569 435.274 253.9 443.257 259.128C443.73 249.342 443.493 238.846 443.493 228.976C443.541 220.571 440.754 219.86 430.787 211.12L397.674 181.721C389.219 183.185 384.684 185.82 377.788 179.547C371.789 174.152 372.167 166.541 377.268 161.314C383.976 154.498 408.066 153.41 401.17 178.418C414.868 191.507 429.748 203.174 443.824 216.18C449.445 221.407 448.878 220.738 448.737 230.064C448.642 236.295 448.925 242.484 448.925 248.673C448.831 263.937 445.997 271.84 467.159 269.039C466.072 259.964 466.922 244.909 467.017 235.249C467.111 226.467 468.67 226.3 463.333 221.658C459.884 218.689 457.334 216.473 453.933 213.42C422.284 184.691 425.685 195.229 423.087 173.232C415.86 169.343 413.971 169.259 414.49 160.185C414.727 155.167 414.727 156.965 410.664 153.578L381.142 126.939C366.593 128.445 365.081 127.065 366.64 113.808C373.017 111.048 374.812 111.174 382.228 112.47C383.598 117.99 385.724 118.199 382.7 124.639L399.753 140.405C404.901 144.712 412.601 152.281 417.561 155.208C422.946 152.95 429.606 151.696 433.621 155.961C438.25 160.938 435.274 164.994 434.33 169.887L438.439 174.403C448.453 173.901 455.444 171.141 454.783 184.231C454.499 189.5 462.813 194.267 466.734 197.362C466.97 192.343 468.009 182.223 465.694 177.958C460.923 169.092 467.111 172.772 461.301 167.587L383.551 98.9625C368.577 85.3715 370.183 82.8206 350.91 83.866C344.675 84.2006 348.36 82.8206 341.416 90.8915C336.551 90.8079 331.118 92.0206 327.529 88.5915C324.742 85.8733 323.513 80.6042 325.97 76.7569C329.796 70.8186 342.975 67.2641 347.273 81.2733C356.768 81.7751 365.506 79.2242 372.072 85.3715C394.982 106.992 419.403 127.65 443.163 148.518L464.136 167.169C468.954 171.141 468.954 167.879 472.591 172.187C473.394 178.501 469.709 175.783 469.851 185.611C470.04 201.962 469.143 197.487 478.306 208.276C482.133 212.793 486.903 215.929 491.202 219.693C505.184 231.945 507.168 239.807 526.865 237.926C523.937 236.42 522.047 233.953 519.733 231.653C512.836 224.795 511.844 230.816 506.128 218.94C503.956 214.382 505.373 193.305 505.373 187.701C505.467 172.187 505.94 175.24 487.612 159.85C482.133 160.77 478.779 162.109 473.677 158.847C459.601 149.856 478.59 132.083 490.163 145.256C494.461 150.148 490.635 153.41 490.871 156.756C491.06 159.139 495.595 162.109 497.909 164.158C519.402 183.018 515.623 179.212 515.434 209.447C515.34 219.818 517.701 225.213 523.842 231.109C532.959 239.891 533.006 238.344 549.491 238.218C554.262 238.176 561.489 238.553 565.882 238.135C573.629 237.424 568.433 234.455 578.164 235.835C581.14 243.027 576.558 239.682 583.36 245.537L622.566 280.12C625.919 283.006 635.65 291.035 637.634 293.67C638.72 283.09 637.965 278.03 629.179 271.213C626.722 269.331 626.061 268.328 623.935 266.488C619.637 262.808 599.278 270.753 606.411 248.673C598.711 243.069 600.79 244.491 600.648 233.116C600.601 224.836 597.53 224.753 592.854 220.654C570.181 200.874 568.905 206.52 569 182.558C569.094 159.934 571.881 158.47 562.151 149.605L506.223 99.8825C469.143 65.1731 485.911 79.3914 444.533 75.6696C441.084 71.0277 437.494 67.515 432.771 64.5877C412.884 72.3241 402.209 55.8058 411.845 45.1421C420.867 35.1056 444.249 42.8002 436.644 60.5731C438.959 63.124 441.32 64.7131 443.966 67.1804C446.658 69.7314 447.272 71.195 452.563 71.4041C458.42 71.6132 477.645 70.4423 481.566 71.7387C485.911 73.2023 533.62 116.861 540.469 123.343L568.953 148.308C568.953 138.356 569 128.361 569.047 118.408C569.094 111.383 569.519 112.052 565.032 107.828C559.175 102.266 527.526 75.7532 524.125 70.6932C513.403 71.655 509.057 74.7496 502.255 67.2223C497.626 62.0786 498.807 53.4221 503.153 49.4912C513.308 40.4166 535.651 49.3239 526.676 66.7623C532.014 72.7005 542.453 81.3569 549.019 86.8351C552.987 90.1388 556.152 93.2334 560.072 96.6625C563.851 100.008 567.866 103.019 571.267 106.406C575.755 110.797 574.149 116.024 574.149 123.635C574.338 155.334 568.291 159.892 600.223 157.927C601.498 150.358 600.601 137.979 600.648 129.783C600.695 123.301 601.687 121.963 597.672 118.199C595.027 115.732 592.807 113.766 590.114 111.424C579.203 102.057 569.472 93.0243 558.561 83.5733C549.775 76.0042 548.972 77.7187 548.83 62.6222C548.783 56.6422 549.916 54.1749 546.232 51.0385C539.808 45.5184 533.242 38.5347 526.298 33.5165L518.977 26.5746C517.512 25.4455 517.701 25.7383 516.379 24.7764L507.404 15.9109C500.696 16.4545 495.217 17.5 492.336 12.9C487.045 4.36899 498.949 -4.03654 507.026 2.11079C511.844 5.79082 509.671 9.47085 508.632 14.0291C517.796 21.8491 526.157 29.251 534.99 37.2384C552.184 52.6276 551.9 46.2294 551.759 68.9368C551.711 76.2969 557.805 79.3078 562.292 83.3224L600.412 116.986C601.309 105.528 603.199 99.4643 594.602 91.9788C589.737 87.7552 582.887 80.8133 577.55 77.2587C569.614 79.9351 559.647 77.4678 562.34 68.1004C564.654 60.2386 576.321 60.5313 579.628 66.135C584.021 73.495 574.904 70.4423 586.666 81.3987C598.664 92.6061 603.813 91.3934 603.718 102.893C603.529 120.332 600.837 117.07 614.252 129.365C622.046 136.474 620.015 134.592 634.753 134.55C643.727 134.55 652.891 134.257 661.772 134.676C658.701 130.619 653.647 127.357 649.726 123.803C647.931 122.13 645.286 119.035 643.539 117.948C638.768 115.063 639.523 118.366 635.225 114.603C633.335 108.288 636.311 111.424 637.681 106.783C638.437 104.232 637.917 99.5898 637.87 96.7461C637.87 89.8461 638.012 82.9042 638.012 76.0042C638.012 67.975 633.43 66.595 628.99 62.5804C603.86 39.9147 617.039 52.2512 601.734 48.4876C596.586 47.233 592.146 41.0438 595.736 34.4365C600.506 25.6546 623.463 27.9965 614.299 45.853L638.579 67.515C644.625 73.6623 638.437 97.4989 641.082 106.783C641.177 107.034 641.318 107.284 641.366 107.535C643.822 113.641 645.333 116.15 651.285 121.335C666.212 134.425 661.772 134.55 684.965 134.508C705.89 134.508 696.112 131.079 705.985 131.999C708.583 135.763 708.441 142.328 722.328 150.483ZM677.218 207.356V250.304L632.627 211.371C629.273 207.398 632.391 207.774 629.368 202.882C622.046 202.422 620.96 202.965 621.621 209.74C627.951 212.249 627.573 210.911 632.013 214.925C643.444 225.296 665.834 243.738 674.667 252.646C679.532 257.58 677.265 270.502 675.47 277.528C662.244 278.071 663.897 275.771 650.86 264.397C643.916 258.249 638.862 253.775 631.068 246.749C627.431 243.446 624.361 241.898 620.771 238.302C616.803 234.329 614.583 232.824 611.087 229.353C602.349 220.738 603.624 230.565 603.624 201.125L603.718 163.112C641.366 160.227 634.564 159.39 667.44 189.792C675.092 196.818 677.265 194.058 677.218 207.356ZM551.664 322.064L551.428 362.043L513.214 328.337C498.76 314.83 508.16 324.155 504.428 314.537C498.193 313.115 495.642 313.868 495.737 320.308C499.893 323.11 500.507 321.395 504.617 324.615L540.8 356.648C553.695 368.358 551.664 366.016 551.617 386.172V395.581L532.203 378.729C519.496 368.023 534.612 361.416 522.378 351.254L482.652 316.126C473.583 308.599 480.054 293.879 478.023 274.517C481.991 273.639 503.814 273.555 508.585 274.015C514.064 274.517 536.879 296.89 542.359 301.532C551.097 308.933 551.664 307.512 551.664 322.064ZM569.283 291.328L549.633 273.513C558.513 253.482 531.589 249.217 524.22 259.42C519.874 265.442 521.15 272.468 526.157 276.608C533.148 282.379 538.674 280.539 545.996 277.862C552.703 283.382 558.561 289.07 565.268 294.715C570.889 299.441 569.378 299.775 569.378 308.641C569.283 336.701 569.756 322.232 562.387 330.303C560.45 332.477 559.222 335.906 560.072 339.461C561.914 347.072 570.039 347.281 577.691 345.19C581.895 349.288 586.619 353.303 591.39 357.359L605.797 370.658C597.861 377.056 607.308 375.007 578.683 375.341C564.938 375.509 556.671 374.463 556.671 359.325V322.064C556.624 304.124 558.23 309.686 547.555 300.026C504.759 261.344 521.48 270.377 477.881 269.582V235.249C493.044 244.24 486.1 248.464 502.775 248.338C547.129 248.046 532.534 243.738 558.797 266.32C565.646 272.217 564.654 270 566.685 275.52C570.039 284.553 568.858 278.197 569.283 291.328ZM637.634 312.446C616.425 314.035 612.457 309.393 599.751 298.312L579.581 279.995C573.723 274.642 577.975 277.611 574.574 271.882C571.362 269.122 573.912 275.562 557.758 261.009C555.254 258.793 545.854 251.057 544.201 248.38C550.483 248.255 568.244 247.335 573.346 249.509C576.321 250.764 572.873 249.635 576.51 250.889C586.288 254.318 590.965 261.135 601.734 270.669L633.288 298.562C639.051 303.288 638.248 303.037 637.634 312.446ZM592.712 162.694L600.554 162.903V219.902C594.366 215.26 588.65 210.2 583.926 205.809C573.251 195.731 574.101 200.958 574.196 182.558L574.338 160.561C577.55 163.99 586.099 162.652 592.712 162.694ZM722.328 204.387V210.869C714.157 206.645 677.879 170.681 670.935 166.75C650.435 174.821 641.082 156.965 650.718 147.054C655.111 142.496 665.314 141.408 670.983 145.088C679.155 150.399 676.604 155.627 675.47 164.032C687.326 172.103 712.976 199.369 722.328 204.387ZM466.97 274.182L467.111 292.122C467.111 303.204 464.891 303.957 471.882 310.146C477.031 314.704 474.953 322.524 475.142 330.721L451.571 310.523C447.461 306.842 448.831 298.27 448.831 290.031L448.878 272.091C453.035 273.973 448.217 273.513 455.964 273.973C459.648 274.182 463.191 273.889 466.97 274.182ZM524.031 374.881L482.747 337.83C479.818 335.446 478.117 334.568 477.881 329.424C477.692 325.243 477.928 320.099 478.212 315.917L521.15 353.428C524.692 356.607 524.409 356.439 524.362 362.336C524.362 366.434 524.74 370.95 524.031 374.881ZM437.4 175.281C437.447 181.178 435.416 185.778 441.037 188.747C449.587 193.222 448.264 184.816 456.342 192.636C469.143 204.973 467.159 198.867 466.97 221.407L442.879 200.498C421.717 182.683 427.15 186.405 426.394 172.898L432.723 171.058C434.377 172.94 435.274 173.86 437.4 175.281ZM677.171 301.95C668.574 303.413 650.152 304.919 644.058 299.357C641.696 297.224 641.177 297.266 640.61 294.171C640.09 291.161 640.657 283.424 641.46 280.58C646.231 280.58 651.096 280.33 655.867 280.33C663.189 280.371 662.197 281.459 666.07 285.097C669.329 288.15 670.51 289.07 673.675 291.83C677.549 295.217 677.171 295.342 677.171 301.95ZM535.226 245.62C528.093 246.122 519.496 245.871 512.127 245.913C504.003 245.955 495.925 247.167 491.155 243.487C489.69 242.316 480.479 234.204 479.582 233.075C476.606 229.395 477.598 217.894 478.07 212.5C493.705 220.78 502.539 240.644 516.757 240.853C530.172 241.062 527.81 238.302 535.226 245.62ZM597.53 441.289C576.038 441.665 583.218 440.244 560.167 421.174C555.018 416.909 557.427 412.518 556.718 405.492C562.623 407.332 563.237 410.427 567.252 413.856C571.22 417.243 573.582 418.833 577.455 422.429C582.179 426.904 595.263 437.107 597.53 441.289ZM657.284 277.695L644.105 278.155L643.586 275.395C641.696 267.784 640.752 271.715 635.225 270C632.532 269.122 628.376 264.146 625.116 262.431C630.549 235.04 610.331 253.273 604.569 243.446C602.632 240.142 603.813 234.12 603.86 229.896C606.694 232.656 607.025 232.949 610.095 235.375L657.284 277.695ZM696.915 337.956C685.626 341.928 676.793 326.204 662.339 315.457C677.36 314.286 678.257 318.384 695.357 333.648C698.521 336.492 698.096 334.861 696.915 337.956ZM523.842 64.4204C519.024 61.1586 521.527 61.2422 519.827 54.7185C505.467 50.9548 504.381 62.7477 511.844 64.7968C516.993 66.1768 515.481 63.5004 519.685 67.4732C514.537 75.7951 493.989 63.8768 504.475 52.7112C512.553 44.0966 533.053 52.6276 523.842 64.4204ZM394.368 178.167C390.116 185.234 374.292 179.421 376.607 168.172C378.685 158.261 393.943 158.136 398.666 165.119C400.839 168.298 401.028 176.41 397.391 175.156C393.092 173.692 397.344 167.921 392.289 165.454C383.692 161.23 377.315 173.609 387.377 176.285C391.345 177.33 389.928 176.201 394.368 178.167ZM308.351 169.343C301.974 165.287 306.981 161.021 300.321 158.972C291.912 156.379 289.173 165.036 293.566 168.632C300.368 172.312 300.321 166.876 304.761 173.232C304.525 173.4 304.147 173.4 304.005 173.734L301.549 175.072C296.636 176.703 292.196 175.449 289.126 172.229C285.536 168.465 284.874 162.694 288.889 158.554C297.77 149.396 313.216 156.296 308.351 169.343ZM673.061 160.687C667.771 157.968 669.377 154.916 668.149 150.65C664.086 149.396 662.953 149.061 657.946 150.525C656.576 153.118 654.97 156.756 657.662 159.432C663.992 163.99 663.992 157.425 668.621 164.952C653.316 170.347 645.192 156.547 652.797 148.852C659.977 141.576 677.785 147.305 673.061 160.687ZM434.046 58.0222C429.842 56.3076 431.779 53.924 429.322 50.1603C423.654 41.4202 410.003 53.8403 420.395 58.2313C426.205 60.6986 427.291 56.4331 430.409 62.7477C408.586 68.1423 409.011 52.0839 414.207 47.1075C422.095 39.622 437.494 43.1766 434.046 58.0222ZM546.563 271.046C548.594 272.76 545.76 270.46 545.76 270.419C542.689 267.031 543.917 265.526 542.17 261.428C538.627 260.508 533.951 260.131 531.636 263.059C528.518 267.031 531.116 268.035 532.581 271.757C538.438 272.928 541.272 271.339 543.256 275.98C530.172 282.462 519.071 268.662 527.432 260.089C536.832 250.387 554.404 263.811 546.563 271.046ZM658.087 346.612C664.322 350.459 658.607 352.676 667.346 353.847C670.416 351.588 670.794 350.25 669.944 346.654C664.511 345.106 664.653 347.03 660.307 344.939C662.858 339.712 668.574 340.966 671.644 343.099C674.714 345.274 676.415 350.668 673.439 354.265C669.424 359.074 654.308 358.112 658.087 346.612ZM361.539 265.986L360.216 258.751C355.445 258.249 349.871 258.751 352.186 263.853C354.028 267.993 356.579 265.359 360.169 268.328C350.296 274.266 342.597 262.055 349.352 256.493C352.28 254.068 357.665 253.649 361.444 255.991C363.57 257.329 364.231 258.835 364.467 261.386C364.94 266.948 361.539 265.986 361.539 265.986ZM305.328 278.615C304.383 275.562 306.131 272.886 302.399 271.004C297.723 268.662 296.116 272.259 295.55 275.562C300.179 280.664 299.943 276.608 304.052 280.706C294.51 285.18 286.811 274.433 293.802 268.244C302.163 260.884 314.728 274.015 305.328 278.615ZM613.024 44.1802C611.701 43.3439 611.938 44.3475 610.284 42.0057C608.678 39.622 610.284 41.3366 609.103 38.9529C607.639 35.9002 606.316 35.6911 601.923 35.9002C596.255 45.1839 606.316 41.7129 610.095 46.1039C599.656 49.0312 592.051 40.0402 599.562 33.5583C606.553 27.5783 617.039 33.8929 613.024 44.1802ZM344.486 81.5242C335.275 81.5242 341.51 79.4751 335.559 78.5133C330.457 77.6769 330.268 81.3987 331.496 85.246C333.055 85.9151 334.331 86.6679 336.692 86.3333C343.542 85.3715 334.756 84.9951 343.636 84.117C338.346 92.6479 326.111 89.5952 327.056 80.4369C327.906 72.575 342.361 69.7314 344.486 81.5242ZM218.649 192.678C210.052 192.803 216.713 187.283 205.895 190.545C205.14 193.305 204.62 196.734 208.966 197.571C215.39 198.742 211.422 194.267 218.082 195.982C210.288 204.345 199.707 199.327 201.455 190.922C203.108 183.185 217.846 181.972 218.649 192.678ZM488.415 147.179L488.273 154.665C487.801 154.456 487.517 153.787 487.47 153.954L486.242 150.525C483.786 142.621 475.236 148.601 477.692 153.327C482.038 157.007 481.991 153.954 484.211 157.634C475 158.93 470.985 156.003 473.016 147.639C475.425 144.001 478.354 142.914 484.353 143.457L488.415 147.179Z" fill="#D2D3D5" fill-opacity="0.5"/>
<path fill-rule="evenodd" clip-rule="evenodd" d="M898.001 150.483V153.828C893.797 151.947 891.246 148.936 887.892 146.008C883.735 142.37 878.067 138.146 871.076 137.185L845.616 137.268C849.536 142.036 893.277 181.052 898.001 183.645V186.865C893.797 184.9 856.055 151.027 849.206 145.13C843.112 139.861 844.718 137.185 833.854 137.101C777.737 136.683 802.914 140.237 779.344 124.054L779.674 158.01C812.456 159.809 810.472 152.072 827.005 168.841C864.416 206.854 858.37 176.41 858.039 246.624C857.992 252.311 857 254.444 860.59 258.04C869.423 266.822 875.941 264.229 898.001 263.769V266.195C853.126 266.069 871.737 267.659 857.897 260.089L857.803 270.209C861.487 269.791 863.235 269.122 866.541 270.293C876.414 273.68 871.407 284.679 871.123 287.021C880.24 291.244 882.555 289.781 898.001 289.53V294.13L880.807 294.548C883.924 297.433 886.003 299.022 889.404 301.824C892.758 304.584 894.741 307.052 898.001 309.561V312.655C894.08 310.146 886.003 303.121 882.602 299.524C874.949 291.37 872.682 294.506 857.661 294.046L858.464 302.242L876.556 302.159C878.823 305.755 878.823 305.17 881.704 307.553L886.57 312.53C888.317 314.328 889.876 315.541 891.86 317.13L898.001 321.563V324.615C882.649 316.586 882.696 301.113 858.322 305.546C860.306 310.481 863.188 310.146 866.73 313.533C869.801 316.503 870.793 318.134 874.335 321.312C876.319 323.068 877.075 323.737 879.154 325.41L883.216 328.839C886.664 330.93 893.183 329.885 898.001 329.926V341.134L894.222 341.426C892.852 350.041 892.285 349.623 884.916 352.843C885.153 364.301 884.964 375.759 885.011 387.218C885.058 398.76 883.121 396.752 898.001 408.712V412.058C893.466 409.842 890.821 406.412 886.995 403.151C881.09 398.132 881.94 398.843 882.082 389.309C882.271 377.056 882.082 364.678 882.082 352.467C875.091 351.421 872.257 348.536 871.36 341.594C859.976 340.548 862.715 341.343 856.338 335.195L835.177 316.712C831.398 314.37 822.565 315.332 816.755 315.29C815.715 326.163 815.243 325.535 821.714 331.725C824.029 333.941 832.484 340.799 833.193 341.886C848.639 335.363 858.039 346.528 850.434 355.394C844.199 362.67 825.966 359.367 831.823 344.437C827.902 341.635 822.848 336.743 818.88 333.23C811.417 326.664 814.062 326.121 813.306 315.541C786.712 313.408 800.836 319.514 788.177 317.799C783.736 311.233 791.436 316.293 779.721 305.839L758.701 287.271C756.292 285.055 751.616 279.368 748.215 279.41C745.381 297.141 749.868 294.464 760.827 306.048C761.961 307.219 763 308.139 764.37 309.143L796.254 337.245C806.032 334.777 815.999 335.572 818.833 344.981C822.187 355.937 813.401 358.865 806.693 362.378V376.387C810.944 378.603 820.628 388.054 824.36 391.441C846.561 411.682 841.601 409.591 855.961 409.925C861.865 410.051 867.581 410.092 873.485 410.092C893.608 410.009 886.853 410.218 898.001 418.749V425.189C885.436 418.582 895.45 414.567 872.304 414.609C856.386 414.651 844.766 417.034 838.625 410.887C832.957 405.2 807.591 382.074 801.356 378.812L801.308 362.419C799.23 361.039 783.028 357.359 792.286 340.674L747.743 301.197V326.204C754.119 331.557 760.496 329.09 755.395 343.81L816.755 398.132C827.147 406.622 836.972 416.156 847.033 425.105C850.576 428.242 858.795 436.898 863.14 437.944C877.028 441.164 885.908 427.991 884.255 442H861.487C858.322 438.989 857.378 442.042 851.757 439.742L789.877 385.754C787.752 383.914 786.665 382.074 784.162 380.569C774.809 375.049 752.702 378.269 740.374 377.516C737.303 375.55 735.178 373.459 732.627 371.159L732.532 400.641C755.962 402.983 771.55 396.878 779.296 404.447C782.272 407.416 784.114 409.131 787.374 411.765C793.609 416.867 798.569 421.133 804.568 426.527C809.197 430.667 817.369 436.982 820.864 442H813.354C810.992 438.571 802.631 431.838 798.852 428.451L776.651 408.754C773.581 405.911 773.392 405.492 767.346 405.451C757.804 405.409 748.168 405.534 738.626 405.618C741.082 408.796 746.089 412.351 749.396 415.403C753.364 419 756.34 421.927 760.307 425.398C787.799 449.276 775.376 437.484 785.342 442H751.38C747.081 435.351 728.565 423.516 727.573 417.202C725.967 406.956 729.793 406.831 714.158 393.909L674.29 358.865C671.928 356.983 670.511 355.436 667.961 353.136C663.615 349.33 658.136 343.81 653.884 342.012C653.554 351.17 651.853 352.843 657.899 357.903L679.156 376.261C681.801 378.519 682.084 379.774 684.446 380.819C689.925 383.203 686.761 379.23 692.712 383.078C695.83 388.472 692.051 386.758 691.154 391.609C690.87 393.281 690.823 401.561 690.823 403.778C690.823 409.172 695.263 411.849 701.64 417.369C706.175 421.342 726.722 438.571 728.423 442H725.116C723.132 438.153 696.822 416.951 691.106 411.598C688.934 440.327 693.279 440.118 694.366 442H690.492C686.383 436.062 688.225 427.322 688.225 420.296C688.225 407.834 689.311 409.507 681.612 403.067C665.929 390.02 643.492 367.814 630.361 357.443L616.615 352.048L584.919 352.007C587.045 355.185 602.113 367.312 604.05 369.319C606.743 372.038 605.703 371.201 608.774 373.543C611.372 375.467 611.088 375.509 613.214 377.767C620.205 385.378 619.733 379.481 625.165 383.872C628.329 390.981 622.567 386.674 622.142 394.41L622.283 437.86C627.574 440.662 626.109 437.902 628.66 442H612.742C615.717 437.902 615.434 440.076 619.118 437.86L619.166 393.491C619.024 391.4 616.143 384.249 614.725 382.618C611.891 379.272 585.156 358.447 580.81 351.923C555.822 351.547 564.041 355.185 545.336 338.666C536.786 331.139 528.236 323.821 520.206 316.335C520.489 341.176 520.064 366.434 520.017 391.358C520.017 412.1 517.183 414.483 526.866 422.178C530.74 425.273 546.328 438.487 548.453 442H544.627C534.235 427.322 517.183 424.478 517.277 411.054L517.325 321.019C517.372 312.446 515.766 312.404 510.9 308.181C505.421 303.455 484.495 282.63 480.764 282.922C474.151 283.466 469.38 284.846 465.837 279.702C458.61 269.248 473.442 259.169 483.031 266.613C488.652 271.004 485.818 275.562 484.306 280.748L517.136 308.892C516.994 304.041 517.419 298.813 517.183 294.088C516.805 286.351 514.963 291.202 513.924 284.093C513.498 281.5 515.341 283.34 512.223 280.162L437.401 214.047C414.586 193.891 421.388 194.852 397.108 195.48C393.519 199.327 392.763 203.216 384.307 202.463C378.025 201.92 374.341 198.198 374.813 191.883C375.427 183.018 393.66 176.243 397.156 192.678C410.996 192.176 416.475 191.34 422.144 196.567L507.216 272.175C521.576 284.93 515.152 278.28 522.709 283.048C523.56 290.031 520.064 286.017 520.017 295.133C519.97 316.377 517.939 310.523 535.888 326.372C541.793 331.557 547.083 335.99 553.035 341.176C562.341 349.288 558.467 349.665 576.653 349.288C565.6 336.952 555.775 335.07 555.35 325.284C554.972 316.461 557.192 288.108 554.074 284.344L538.392 270.586C521.056 275.144 515.341 262.055 523.56 255.197C532.251 247.878 546.186 254.151 540.47 268.328C543.777 272.551 548.311 275.771 552.043 278.991C558.609 284.679 558.373 283.34 558.231 294.171C558.137 301.072 558.231 307.972 558.231 314.83C558.231 324.114 556.483 327.71 561.16 331.892C585.817 353.805 576.039 349.121 609.624 349.372C626.912 349.497 621.527 343.643 627.432 347.616C631.589 351.588 625.826 351.128 633.431 356.816L672.07 390.814C676.558 394.745 682.604 401.101 687.894 404.238C688.083 400.056 689.028 394.62 687.28 390.856C680.951 377.181 663.331 368.232 653.034 356.983C647.129 350.501 654.262 342.556 648.31 336.408C641.556 329.466 628.093 319.263 622.472 313.868C612.364 304.082 626.157 272.969 615.151 263.477C607.876 257.204 532.535 188.287 527.575 187.451C519.686 186.112 506.46 188.412 498.619 187.2C493.659 186.405 486.432 178.418 483.456 175.658C475.473 178.209 470.183 180.3 463.334 174.612C458.374 170.514 456.437 162.527 461.397 156.798C470.136 146.677 492.856 151.696 486.81 172.187C489.597 174.78 491.77 176.536 494.509 178.961C497.722 181.763 497.816 182.6 504.429 182.725C510.948 182.851 528.236 181.22 532.771 183.352C537.4 185.569 610.947 253.9 618.977 259.128C619.402 249.342 619.166 238.846 619.213 228.976C619.213 220.571 616.473 219.86 606.459 211.12L573.347 181.721C564.891 183.185 560.357 185.82 553.46 179.547C547.461 174.152 547.839 166.541 552.988 161.314C559.648 154.498 583.739 153.41 576.842 178.418C590.541 191.507 605.42 203.174 619.496 216.18C625.117 221.407 624.551 220.738 624.409 230.064C624.314 236.295 624.598 242.484 624.598 248.673C624.503 263.937 621.669 271.84 642.831 269.039C641.745 259.964 642.595 244.909 642.689 235.249C642.784 226.467 644.343 226.3 639.005 221.658C635.557 218.689 633.006 216.473 629.605 213.42C597.957 184.691 601.358 195.229 598.807 173.232C591.533 169.343 589.643 169.259 590.163 160.185C590.399 155.167 590.399 156.965 586.337 153.578L556.814 126.939C542.265 128.445 540.754 127.065 542.312 113.808C548.689 111.048 550.484 111.174 557.948 112.47C559.27 117.99 561.396 118.199 558.373 124.639L575.425 140.405C580.574 144.712 588.273 152.281 593.233 155.208C598.618 152.95 605.278 151.696 609.293 155.961C613.922 160.938 610.947 164.994 610.002 169.887L614.111 174.403C624.125 173.901 631.116 171.141 630.455 184.231C630.172 189.5 638.485 194.267 642.406 197.362C642.689 192.343 643.681 182.223 641.414 177.958C636.596 169.092 642.784 172.772 636.974 167.587L559.223 98.9625C544.249 85.3715 545.855 82.8206 526.583 83.866C520.348 84.2006 524.032 82.8206 517.088 90.8915C512.223 90.8079 506.791 92.0206 503.201 88.5915C500.414 85.8733 499.186 80.6042 501.642 76.7569C505.468 70.8186 518.647 67.2641 522.946 81.2733C532.44 81.7751 541.179 79.2242 547.745 85.3715C570.654 106.992 595.075 127.65 618.835 148.518L639.808 167.169C644.626 171.141 644.626 167.879 648.263 172.187C649.066 178.501 645.382 175.783 645.523 185.611C645.712 201.962 644.815 197.487 654.026 208.276C657.805 212.793 662.576 215.929 666.874 219.693C680.856 231.945 682.84 239.807 702.538 237.926C699.609 236.42 697.719 233.953 695.405 231.653C688.508 224.795 687.516 230.816 681.848 218.94C679.628 214.382 681.045 193.305 681.045 187.701C681.14 172.187 681.612 175.24 663.284 159.85C657.805 160.77 654.451 162.109 649.35 158.847C635.273 149.856 654.262 132.083 665.835 145.256C670.134 150.148 666.307 153.41 666.544 156.756C666.732 159.139 671.267 162.109 673.582 164.158C695.074 183.018 691.295 179.212 691.106 209.447C691.012 219.818 693.374 225.213 699.514 231.109C708.631 239.891 708.725 238.344 725.211 238.218C729.934 238.176 737.162 238.553 741.555 238.135C749.301 237.424 744.105 234.455 753.836 235.835C756.812 243.027 752.23 239.682 759.079 245.537L798.238 280.12C801.592 283.006 811.322 291.035 813.306 293.67C814.44 283.09 813.637 278.03 804.851 271.213C802.395 269.331 801.733 268.328 799.608 266.488C795.309 262.808 774.951 270.753 782.083 248.673C774.384 243.069 776.462 244.491 776.32 233.116C776.273 224.836 773.203 224.753 768.526 220.654C745.853 200.874 744.578 206.52 744.672 182.558C744.767 159.934 747.554 158.47 737.823 149.605L681.895 99.8825C644.815 65.1731 661.584 79.3914 620.205 75.6696C616.757 71.0277 613.167 67.515 608.443 64.5877C588.557 72.3241 577.881 55.8058 587.517 45.1421C596.54 35.1056 619.921 42.8002 612.364 60.5731C614.631 63.124 616.993 64.7131 619.638 67.1804C622.331 69.7314 622.992 71.195 628.235 71.4041C634.14 71.6132 653.317 70.4423 657.238 71.7387C661.584 73.2023 709.292 116.861 716.142 123.343L744.625 148.308C744.625 138.356 744.672 128.361 744.719 118.408C744.767 111.383 745.192 112.052 740.752 107.828C734.847 102.266 703.199 75.7532 699.798 70.6932C689.075 71.655 684.729 74.7496 677.927 67.2223C673.298 62.0786 674.479 53.4221 678.825 49.4912C688.981 40.4166 711.323 49.3239 702.349 66.7623C707.686 72.7005 718.125 81.3569 724.691 86.8351C728.659 90.1388 731.824 93.2334 735.745 96.6625C739.523 100.008 743.539 103.019 746.94 106.406C751.427 110.797 749.821 116.024 749.868 123.635C750.01 155.334 743.964 159.892 775.895 157.927C777.171 150.358 776.273 137.979 776.32 129.783C776.368 123.301 777.36 121.963 773.345 118.199C770.699 115.732 768.479 113.766 765.787 111.424C754.875 102.057 745.145 93.0243 734.233 83.5733C725.447 76.0042 724.644 77.7187 724.502 62.6222C724.455 56.6422 725.589 54.1749 721.904 51.0385C715.48 45.5184 708.914 38.5347 701.971 33.5165L694.649 26.5746C693.185 25.4455 693.374 25.7383 692.051 24.7764L683.123 15.9109C676.416 16.4545 670.889 17.5 668.008 12.9C662.717 4.36899 674.621 -4.03654 682.698 2.11079C687.516 5.79082 685.344 9.47085 684.304 14.0291C693.468 21.8491 701.829 29.251 710.709 37.2384C727.856 52.6276 727.573 46.2294 727.431 68.9368C727.384 76.2969 733.477 79.3078 737.965 83.3224L776.084 116.986C776.982 105.528 778.871 99.4643 770.274 91.9788C765.409 87.7552 758.56 80.8133 753.222 77.2587C745.286 79.9351 735.319 77.4678 738.059 68.1004C740.326 60.2386 751.994 60.5313 755.3 66.135C759.693 73.495 750.577 70.4423 762.339 81.3987C774.336 92.6061 779.485 91.3934 779.391 102.893C779.202 120.332 776.509 117.07 789.924 129.365C797.718 136.474 795.687 134.592 810.425 134.55C819.4 134.55 828.564 134.257 837.444 134.676C834.374 130.619 829.319 127.357 825.399 123.803C823.604 122.13 820.959 119.035 819.211 117.948C814.487 115.063 815.196 118.366 810.897 114.603C809.008 108.288 811.984 111.424 813.354 106.783C814.109 104.232 813.59 99.5898 813.542 96.7461C813.542 89.8461 813.684 82.9042 813.684 76.0042C813.684 67.975 809.102 66.595 804.662 62.5804C779.532 39.9147 792.711 52.2512 777.407 48.4876C772.258 47.233 767.818 41.0438 771.408 34.4365C776.179 25.6546 799.135 27.9965 789.972 45.853L814.298 67.515C820.297 73.6623 814.109 97.4989 816.802 106.783C816.849 107.034 816.991 107.284 817.085 107.535C819.494 113.641 821.006 116.15 826.958 121.335C841.884 134.425 837.444 134.55 860.637 134.508C881.563 134.508 871.785 131.079 881.657 131.999C884.255 135.763 884.113 142.328 898.001 150.483ZM852.89 207.356V250.304L808.299 211.371C804.993 207.398 808.063 207.774 805.04 202.882C797.718 202.422 796.632 202.965 797.293 209.74C803.623 212.249 803.245 210.911 807.685 214.925C819.116 225.296 841.506 243.738 850.339 252.646C855.205 257.58 852.985 270.502 851.142 277.528C837.916 278.071 839.57 275.771 826.58 264.397C819.589 258.249 814.534 253.775 806.74 246.749C803.103 243.446 800.033 241.898 796.443 238.302C792.475 234.329 790.255 232.824 786.76 229.353C778.021 220.738 779.296 230.565 779.344 201.125L779.391 163.112C817.085 160.227 810.236 159.39 843.112 189.792C850.765 196.818 852.937 194.058 852.89 207.356ZM727.336 322.064L727.1 362.043L688.886 328.337C674.432 314.83 683.832 324.155 680.1 314.537C673.865 313.115 671.314 313.868 671.409 320.308C675.613 323.11 676.18 321.395 680.289 324.615L716.472 356.648C729.368 368.358 727.336 366.016 727.289 386.172V395.581L707.875 378.729C695.169 368.023 710.284 361.416 698.05 351.254L658.324 316.126C649.255 308.599 655.726 293.879 653.743 274.517C657.663 273.639 679.486 273.555 684.304 274.015C689.737 274.517 712.552 296.89 718.031 301.532C726.77 308.933 727.336 307.512 727.336 322.064ZM744.956 291.328L725.305 273.513C734.233 253.482 707.308 249.217 699.892 259.42C695.547 265.442 696.822 272.468 701.829 276.608C708.82 282.379 714.394 280.539 721.668 277.862C728.376 283.382 734.233 289.07 740.941 294.715C746.562 299.441 745.097 299.775 745.05 308.641C744.956 336.701 745.428 322.232 738.059 330.303C736.122 332.477 734.894 335.906 735.745 339.461C737.587 347.072 745.711 347.281 753.364 345.19C757.568 349.288 762.291 353.303 767.062 357.359L781.469 370.658C773.533 377.056 782.981 375.007 754.356 375.341C740.61 375.509 732.344 374.463 732.344 359.325V322.064C732.296 304.124 733.902 309.686 723.227 300.026C680.431 261.344 697.153 270.377 653.554 269.582V235.249C668.716 244.24 661.773 248.464 678.447 248.338C722.802 248.046 708.206 243.738 734.469 266.32C741.318 272.217 740.326 270 742.358 275.52C745.711 284.553 744.53 278.197 744.956 291.328ZM813.306 312.446C792.097 314.035 788.129 309.393 775.423 298.312L755.253 279.995C749.396 274.642 753.647 277.611 750.246 271.882C747.034 269.122 749.632 275.562 733.43 261.009C730.926 258.793 721.574 251.057 719.873 248.38C726.156 248.255 743.916 247.335 749.018 249.509C751.994 250.764 748.546 249.635 752.183 250.889C761.961 254.318 766.637 261.135 777.407 270.669L808.961 298.562C814.723 303.288 813.92 303.037 813.306 312.446ZM768.385 162.694L776.226 162.903L776.273 219.902C770.038 215.26 764.322 210.2 759.646 205.809C748.923 195.731 749.774 200.958 749.868 182.558L750.057 160.561C753.222 163.99 761.772 162.652 768.385 162.694ZM898.001 204.387V210.869C889.829 206.645 853.552 170.681 846.608 166.75C826.107 174.821 816.755 156.965 826.391 147.054C830.784 142.496 841.034 141.408 846.655 145.088C854.827 150.399 852.276 155.627 851.142 164.032C862.999 172.103 888.648 199.369 898.001 204.387ZM642.642 274.182L642.784 292.122C642.784 303.204 640.564 303.957 647.555 310.146C652.751 314.704 650.625 322.524 650.814 330.721L627.243 310.523C623.134 306.842 624.503 298.27 624.503 290.031L624.551 272.091C628.707 273.973 623.889 273.513 631.636 273.973C635.32 274.182 638.863 273.889 642.642 274.182ZM699.703 374.881L658.419 337.83C655.49 335.446 653.79 334.568 653.554 329.424C653.365 325.243 653.601 320.099 653.884 315.917L696.822 353.428C700.365 356.607 700.081 356.439 700.034 362.336C700.034 366.434 700.412 370.95 699.703 374.881ZM613.072 175.281C613.119 181.178 611.088 185.778 616.757 188.747C625.259 193.222 623.937 184.816 632.014 192.636C644.815 204.973 642.831 198.867 642.642 221.407L618.552 200.498C597.39 182.683 602.822 186.405 602.066 172.898L608.396 171.058C610.049 172.94 610.947 173.86 613.072 175.281ZM852.843 301.95C844.246 303.413 825.824 304.919 819.73 299.357C817.369 297.224 816.849 297.266 816.282 294.171C815.763 291.161 816.329 283.424 817.132 280.58C821.903 280.58 826.769 280.33 831.539 280.33C838.861 280.371 837.916 281.459 841.742 285.097C845.002 288.15 846.183 289.07 849.348 291.83C853.268 295.217 852.843 295.342 852.843 301.95ZM710.898 245.62C703.766 246.122 695.169 245.871 687.847 245.913C679.675 245.955 671.598 247.167 666.827 243.487C665.363 242.316 656.152 234.204 655.254 233.075C652.278 229.395 653.27 217.894 653.743 212.5C669.378 220.78 678.211 240.644 692.429 240.853C705.844 241.062 703.482 238.302 710.898 245.62ZM773.203 441.289C751.71 441.665 758.89 440.244 735.839 421.174C730.69 416.909 733.099 412.518 732.391 405.492C738.295 407.332 738.909 410.427 742.924 413.856C746.892 417.243 749.301 418.833 753.127 422.429C757.851 426.904 770.935 437.107 773.203 441.289ZM832.957 277.695L819.778 278.155L819.258 275.395C817.369 267.784 816.424 271.715 810.897 270C808.252 269.122 804.048 264.146 800.789 262.431C806.221 235.04 786.004 253.273 780.288 243.446C778.304 240.142 779.485 234.12 779.532 229.896C782.414 232.656 782.697 232.949 785.768 235.375L832.957 277.695ZM872.588 337.956C861.345 341.928 852.465 326.204 838.011 315.457C853.032 314.286 853.929 318.384 871.029 333.648C874.194 336.492 873.769 334.861 872.588 337.956ZM699.514 64.4204C694.696 61.1586 697.2 61.2422 695.499 54.7185C681.14 50.9548 680.053 62.7477 687.564 64.7968C692.665 66.1768 691.154 63.5004 695.358 67.4732C690.209 75.7951 669.661 63.8768 680.148 52.7112C688.225 44.0966 708.725 52.6276 699.514 64.4204ZM570.04 178.167C565.836 185.234 549.965 179.421 552.279 168.172C554.358 158.261 569.615 158.136 574.339 165.119C576.511 168.298 576.7 176.41 573.063 175.156C568.765 173.692 573.016 167.921 567.962 165.454C559.365 161.23 552.988 173.609 563.049 176.285C567.017 177.33 565.6 176.201 570.04 178.167ZM484.07 169.343C477.646 165.287 482.653 161.021 475.993 158.972C467.585 156.379 464.892 165.036 469.238 168.632C476.04 172.312 476.04 166.876 480.433 173.232C480.197 173.4 479.819 173.4 479.677 173.734L477.221 175.072C472.308 176.703 467.868 175.449 464.798 172.229C461.208 168.465 460.547 162.694 464.562 158.554C473.442 149.396 488.936 156.296 484.07 169.343ZM848.733 160.687C843.443 157.968 845.049 154.916 843.821 150.65C839.759 149.396 838.625 149.061 833.618 150.525C832.295 153.118 830.642 156.756 833.334 159.432C839.711 163.99 839.664 157.425 844.34 164.952C828.989 170.347 820.864 156.547 828.469 148.852C835.649 141.576 853.457 147.305 848.733 160.687ZM609.718 58.0222C605.514 56.3076 607.451 53.924 604.995 50.1603C599.326 41.4202 585.722 53.8403 596.067 58.2313C601.877 60.6986 602.964 56.4331 606.081 62.7477C584.258 68.1423 584.683 52.0839 589.879 47.1075C597.768 39.622 613.167 43.1766 609.718 58.0222ZM722.235 271.046C724.266 272.76 721.432 270.46 721.432 270.419C718.362 267.031 719.59 265.526 717.889 261.428C714.299 260.508 709.623 260.131 707.308 263.059C704.191 267.031 706.789 268.035 708.253 271.757C714.11 272.928 716.945 271.339 718.928 275.98C705.891 282.462 694.744 268.662 703.104 260.089C712.504 250.387 730.076 263.811 722.235 271.046ZM833.76 346.612C839.995 350.459 834.279 352.676 843.018 353.847C846.088 351.588 846.466 350.25 845.616 346.654C840.184 345.106 840.325 347.03 835.98 344.939C838.578 339.712 844.246 340.966 847.316 343.099C850.434 345.274 852.134 350.668 849.111 354.265C845.096 359.074 829.981 358.112 833.76 346.612ZM537.211 265.986L535.888 258.751C531.117 258.249 525.544 258.751 527.858 263.853C529.7 267.993 532.251 265.359 535.841 268.328C525.969 274.266 518.269 262.055 525.024 256.493C527.953 254.068 533.338 253.649 537.116 255.991C539.242 257.329 539.903 258.835 540.14 261.386C540.612 266.948 537.211 265.986 537.211 265.986ZM481 278.615C480.055 275.562 481.803 272.886 478.071 271.004C473.395 268.662 471.789 272.259 471.222 275.562C475.851 280.664 475.615 276.608 479.725 280.706C470.183 285.18 462.531 274.433 469.474 268.244C477.835 260.884 490.4 274.015 481 278.615ZM788.696 44.1802C787.374 43.3439 787.61 44.3475 786.004 42.0057C784.351 39.622 785.957 41.3366 784.823 38.9529C783.311 35.9002 781.989 35.6911 777.643 35.9002C771.927 45.1839 781.989 41.7129 785.768 46.1039C775.376 49.0312 767.723 40.0402 775.234 33.5583C782.225 27.5783 792.759 33.8929 788.696 44.1802ZM520.159 81.5242C510.948 81.5242 517.183 79.4751 511.231 78.5133C506.13 77.6769 505.941 81.3987 507.169 85.246C508.728 85.9151 510.003 86.6679 512.365 86.3333C519.214 85.3715 510.428 84.9951 519.356 84.117C514.018 92.6479 501.784 89.5952 502.729 80.4369C503.579 72.575 518.08 69.7314 520.159 81.5242ZM394.322 192.678C385.725 192.803 392.385 187.283 381.568 190.545C380.812 193.305 380.292 196.734 384.638 197.571C391.062 198.742 387.094 194.267 393.755 195.982C385.961 204.345 375.38 199.327 377.128 190.922C378.781 183.185 393.519 181.972 394.322 192.678ZM664.087 147.179L663.993 154.665C663.473 154.456 663.19 153.787 663.143 153.954L661.914 150.525C659.458 142.621 650.908 148.601 653.365 153.327C657.71 157.007 657.663 153.954 659.883 157.634C650.672 158.93 646.657 156.003 648.688 147.639C651.097 144.001 654.026 142.914 660.025 143.457L664.087 147.179Z" fill="#0098DA" fill-opacity="0.8"/>
</svg>
